<?xml version="1.0" encoding="utf-8"?>
<!-- Generator: Adobe Illustrator 22.1.0, SVG Export Plug-In . SVG Version: 6.00 Build 0)  -->
<svg version="1.1" id="Layer_1" xmlns="http://www.w3.org/2000/svg" xmlns:xlink="http://www.w3.org/1999/xlink" x="0px" y="0px"
	 viewBox="0 0 612 792" style="enable-background:new 0 0 612 792;" xml:space="preserve">
<style type="text/css">
	.st0{fill:#FFFFFF;stroke:#000000;stroke-miterlimit:10;}
	.st1{fill:#3456B1;}
</style>
<rect x="139.6" y="145.9" class="st0" width="50.4" height="72"/>
<g>
	<path class="st1" d="M161.1,167c0,2.7-1,4.1-2.7,4.1c-1.5,0-2.6-1.4-2.6-4c0-2.6,1.1-4.1,2.7-4.1
		C160.2,163.1,161.1,164.6,161.1,167z M156.9,167.2c0,2,0.6,3.2,1.6,3.2c1.1,0,1.6-1.3,1.6-3.3c0-1.9-0.5-3.2-1.6-3.2
		C157.6,163.9,156.9,165,156.9,167.2z"/>
	<path class="st1" d="M162.2,170.4c0-0.4,0.3-0.8,0.7-0.8s0.7,0.3,0.7,0.8c0,0.4-0.3,0.8-0.7,0.8
		C162.5,171.2,162.2,170.8,162.2,170.4z"/>
	<path class="st1" d="M169.6,163.2v0.7l-3.4,7.1h-1.1l3.4-6.9v0h-3.8v-0.9H169.6z"/>
	<path class="st1" d="M172.4,162.8c-0.3,1-0.8,2.3-1.1,2.8l-0.7,0.1c0.3-0.7,0.6-2,0.7-2.8L172.4,162.8z M174.2,162.8
		c-0.3,1-0.8,2.3-1.1,2.8l-0.7,0.1c0.3-0.7,0.6-2,0.7-2.8L174.2,162.8z"/>
	<path class="st1" d="M163,179.6l0.8,1.2c0.2,0.3,0.4,0.6,0.6,0.9h0c0.2-0.3,0.4-0.6,0.6-1l0.8-1.2h1.1l-2,2.8l2,3h-1.2l-0.9-1.3
		c-0.2-0.3-0.4-0.7-0.6-1h0c-0.2,0.3-0.4,0.7-0.6,1l-0.8,1.3h-1.2l2.1-3l-2-2.8H163z"/>
	<path class="st1" d="M158.2,193L158.2,193l-1.4,0.7l-0.2-0.8l1.7-0.9h0.9v7.8h-1V193z"/>
	<path class="st1" d="M162.2,199.2c0-0.4,0.3-0.8,0.7-0.8s0.7,0.3,0.7,0.8c0,0.4-0.3,0.8-0.7,0.8C162.5,200,162.2,199.6,162.2,199.2
		z"/>
	<path class="st1" d="M169.8,195.8c0,2.7-1,4.1-2.7,4.1c-1.5,0-2.6-1.4-2.6-4c0-2.6,1.1-4.1,2.7-4.1
		C168.8,191.9,169.8,193.4,169.8,195.8z M165.5,196c0,2,0.6,3.2,1.6,3.2c1.1,0,1.6-1.3,1.6-3.3c0-1.9-0.5-3.2-1.6-3.2
		C166.2,192.7,165.5,193.8,165.5,196z"/>
	<path class="st1" d="M172.4,191.6c-0.3,1-0.8,2.3-1.1,2.8l-0.7,0.1c0.3-0.7,0.6-2,0.7-2.8L172.4,191.6z M174.2,191.6
		c-0.3,1-0.8,2.3-1.1,2.8l-0.7,0.1c0.3-0.7,0.6-2,0.7-2.8L174.2,191.6z"/>
</g>
</svg>
