<?xml version="1.0" encoding="utf-8"?>
<!-- Generator: Adobe Illustrator 23.1.1, SVG Export Plug-In . SVG Version: 6.00 Build 0)  -->
<svg version="1.1" id="Layer_1" xmlns="http://www.w3.org/2000/svg" xmlns:xlink="http://www.w3.org/1999/xlink" x="0px" y="0px"
	 viewBox="0 0 1703 603.6" style="enable-background:new 0 0 1703 603.6;" xml:space="preserve">
<style type="text/css">
	.st0{fill:none;stroke:#FF073A;}
	.st1{fill:none;stroke:#A10080;stroke-width:0.9;}
	.st2{fill:none;stroke:#000000;stroke-miterlimit:10;}
	.st3{fill:none;stroke:#FF0702;stroke-width:0.9;}
	.st4{fill:none;stroke:#FA0000;}
</style>
<g>
	<g>
		<circle class="st0" cx="236.4" cy="239" r="7.5"/>
	</g>
	<g>
		<circle class="st0" cx="236.4" cy="514" r="7.5"/>
	</g>
</g>
<g>
	<g>
		<circle class="st0" cx="192.4" cy="206.7" r="7.5"/>
	</g>
	<g>
		<circle class="st0" cx="192.4" cy="481.7" r="7.5"/>
	</g>
</g>
<g>
	<g>
		<circle class="st0" cx="93.3" cy="133.8" r="7.5"/>
	</g>
	<g>
		<circle class="st0" cx="93.3" cy="408.8" r="7.5"/>
	</g>
</g>
<g>
	<g>
		<circle class="st0" cx="51.9" cy="103.4" r="7.5"/>
	</g>
	<g>
		<circle class="st0" cx="51.9" cy="378.4" r="7.5"/>
	</g>
</g>
<g>
	<g>
		<path class="st1" d="M339,61.8h9V26.3h-30.1v9l0,0h-29.3v-9h-22v9h-21.2v-9h-22v9h-21.2v-9h-22v9H159v-9h-22v9h-21.2v-9h-22v9
			H72.6v-9h-22v9H30.8v13.3c0,3.7,3,6.7,6.7,6.7h148.6c99,29.7,130.3,88,142.9,143.5v66.3c0,2,1.6,3.6,3.6,3.6h6.4v-20.6h9v-22h-9
			v-21.2h9v-22h-9v-21.2h9v-22h-9v-21.2h9v-22h-9V61.8L339,61.8z"/>
	</g>
	<g>
		<path class="st1" d="M339,336.8h9v-35.5h-30.1v9l0,0h-29.3v-9h-22v9h-21.2v-9h-22v9h-21.2v-9h-22v9H159v-9h-22v9h-21.2v-9h-22v9
			H72.6v-9h-22v9H30.8v13.3c0,3.7,3,6.7,6.7,6.7h148.6c99,29.7,130.3,88,142.9,143.5v66.3c0,2,1.6,3.6,3.6,3.6h6.4v-20.6h9v-22h-9
			v-21.2h9v-22h-9v-21.2h9v-22h-9v-21.2h9v-22h-9V336.8L339,336.8z"/>
	</g>
</g>
<g>
	<g>
		<path class="st1" d="M323.6,276.1c0-6.1-5-11.1-11.1-11.1L31.8,63.5c0-5.1-4.1-9.2-9.2-9.2h-8v20.6h-9v22h9V108v10.1h-9v22h9v21.2
			h-9v22h9v21.2h-9v22h9v34.7h-9v35.5h30.1v-9H65v9h22v-9h21.2v9h22v-9h21.2v9h22v-9h21.2v9h22v-9h21.2v9h22v-9H281v9h22v-9h19.8
			l0,0h0.9L323.6,276.1L323.6,276.1z"/>
	</g>
	<g>
		<path class="st1" d="M323.6,551.1c0-6.1-5-11.1-11.1-11.1L31.8,338.5c0-5.1-4.1-9.2-9.2-9.2h-8v20.6h-9v22h9V383v10.1h-9v22h9
			v21.2h-9v22h9v21.2h-9v22h9v34.7h-9v35.5h30.1v-9H65v9h22v-9h21.2v9h22v-9h21.2v9h22v-9h21.2v9h22v-9h21.2v9h22v-9H281v9h22v-9
			h19.8l0,0h0.9L323.6,551.1L323.6,551.1z"/>
	</g>
</g>
<g>
	<g>
		<g>
			<g>
				<path d="M515,164.7c0.5-0.1,1.2-0.2,2-0.2c1,0,1.8,0.2,2.3,0.7c0.4,0.4,0.7,1,0.7,1.7s-0.2,1.3-0.6,1.7
					c-0.6,0.6-1.5,0.9-2.5,0.9c-0.3,0-0.6,0-0.8-0.1v3.2h-1v-7.9L515,164.7L515,164.7z M516.1,168.6c0.2,0.1,0.5,0.1,0.9,0.1
					c1.3,0,2-0.6,2-1.7s-0.8-1.6-1.9-1.6c-0.5,0-0.8,0-1,0.1V168.6z"/>
				<path d="M521.2,168.7c0-0.7,0-1.3,0-1.8h0.9v1.1l0,0c0.3-0.8,0.9-1.3,1.6-1.3c0.1,0,0.2,0,0.3,0v1c-0.1,0-0.2,0-0.4,0
					c-0.7,0-1.3,0.6-1.4,1.4c0,0.1,0,0.3,0,0.5v3.1h-1L521.2,168.7L521.2,168.7z"/>
				<path d="M530.2,169.7c0,2.1-1.5,3.1-2.9,3.1c-1.6,0-2.8-1.2-2.8-3c0-1.9,1.3-3.1,2.9-3.1C529.1,166.7,530.2,167.9,530.2,169.7z
					 M525.6,169.8c0,1.3,0.7,2.2,1.8,2.2c1,0,1.8-0.9,1.8-2.3c0-1-0.5-2.2-1.7-2.2C526.2,167.5,525.6,168.7,525.6,169.8z"/>
				<path d="M532.8,165.2v1.7h1.5v0.8h-1.5v3.1c0,0.7,0.2,1.1,0.8,1.1c0.3,0,0.5,0,0.6-0.1v0.8c-0.2,0.1-0.5,0.1-0.9,0.1
					c-0.5,0-0.9-0.2-1.1-0.4c-0.3-0.3-0.4-0.8-0.4-1.5v-3.2h-0.9v-0.8h0.9v-1.4L532.8,165.2z"/>
				<path d="M540.7,169.7c0,2.1-1.5,3.1-2.9,3.1c-1.6,0-2.8-1.2-2.8-3c0-1.9,1.3-3.1,2.9-3.1C539.6,166.7,540.7,167.9,540.7,169.7z
					 M536.1,169.8c0,1.3,0.7,2.2,1.8,2.2c1,0,1.8-0.9,1.8-2.3c0-1-0.5-2.2-1.7-2.2C536.7,167.5,536.1,168.7,536.1,169.8z"/>
				<path d="M542,172.7c0-0.4,0-1,0-1.5v-7h1v3.6l0,0c0.4-0.6,1-1.1,2-1.1c1.4,0,2.5,1.2,2.4,3c0,2.1-1.3,3.1-2.6,3.1
					c-0.8,0-1.5-0.3-1.9-1.1l0,0v1H542z M543.1,170.3c0,0.1,0,0.3,0,0.4c0.2,0.7,0.8,1.2,1.6,1.2c1.1,0,1.8-0.9,1.8-2.2
					c0-1.2-0.6-2.2-1.7-2.2c-0.7,0-1.4,0.5-1.6,1.3c0,0.1-0.1,0.3-0.1,0.4V170.3z"/>
				<path d="M554.1,169.7c0,2.1-1.5,3.1-2.9,3.1c-1.6,0-2.8-1.2-2.8-3c0-1.9,1.3-3.1,2.9-3.1C553,166.7,554.1,167.9,554.1,169.7z
					 M549.5,169.8c0,1.3,0.7,2.2,1.8,2.2c1,0,1.8-0.9,1.8-2.3c0-1-0.5-2.2-1.7-2.2C550.1,167.5,549.5,168.7,549.5,169.8z"/>
				<path d="M558.7,172.7l-0.1-0.7l0,0c-0.3,0.5-0.9,0.9-1.8,0.9c-1.2,0-1.8-0.8-1.8-1.7c0-1.4,1.2-2.2,3.5-2.2v-0.1
					c0-0.5-0.1-1.3-1.3-1.3c-0.5,0-1.1,0.2-1.5,0.4l-0.2-0.7c0.5-0.3,1.2-0.5,1.9-0.5c1.8,0,2.2,1.2,2.2,2.4v2.2c0,0.5,0,1,0.1,1.4
					L558.7,172.7L558.7,172.7z M558.5,169.7c-1.2,0-2.5,0.2-2.5,1.3c0,0.7,0.5,1,1,1c0.8,0,1.2-0.5,1.4-1c0-0.1,0.1-0.2,0.1-0.3
					V169.7z"/>
				<path d="M561.3,168.7c0-0.7,0-1.3,0-1.8h0.9v1.1l0,0c0.3-0.8,0.9-1.3,1.6-1.3c0.1,0,0.2,0,0.3,0v1c-0.1,0-0.2,0-0.4,0
					c-0.7,0-1.3,0.6-1.4,1.4c0,0.1,0,0.3,0,0.5v3.1h-1L561.3,168.7L561.3,168.7z"/>
				<path d="M570.1,164.1v7c0,0.5,0,1.1,0,1.5h-0.9v-1l0,0c-0.3,0.6-1,1.1-2,1.1c-1.4,0-2.5-1.2-2.5-3c0-1.9,1.2-3.1,2.6-3.1
					c0.9,0,1.5,0.4,1.8,0.9l0,0V164h1L570.1,164.1L570.1,164.1z M569,169.2c0-0.1,0-0.3,0-0.4c-0.2-0.7-0.7-1.2-1.5-1.2
					c-1.1,0-1.7,1-1.7,2.2s0.6,2.1,1.7,2.1c0.7,0,1.4-0.5,1.5-1.3c0-0.1,0-0.3,0-0.5V169.2z"/>
			</g>
			<rect x="410.3" y="38" class="st2" width="297" height="247"/>
			<polygon class="st3" points="1167.5,27.3 1132,27.3 1110.8,27.3 1088.8,27.3 1067.6,27.3 1045.6,27.3 1045.6,36.3 1024.4,36.3 
				1024.4,27.3 1002.4,27.3 1002.4,36.3 981.2,36.3 981.2,27.3 959.2,27.3 959.2,36.3 938,36.3 938,27.3 916,27.3 916,36.3 
				894.8,36.3 894.8,27.3 859.3,27.3 859.3,36.3 824.2,36.3 824.2,57.4 833.2,57.4 833.2,86.7 824.2,86.7 824.2,108.7 833.2,108.7 
				833.2,129.9 824.2,129.9 824.2,151.9 833.2,151.9 833.2,173.1 824.2,173.1 824.2,195.1 833.2,195.1 833.2,216.3 824.2,216.3 
				824.2,238.3 833.2,238.3 833.2,267.6 824.2,267.6 824.2,288.7 859.3,288.7 859.3,297.7 894.8,297.7 894.8,288.7 916,288.7 
				916,297.7 938,297.7 938,288.7 959.2,288.7 959.2,297.7 981.2,297.7 981.2,288.7 1002.4,288.7 1002.4,297.7 1024.4,297.7 
				1024.4,288.7 1045.6,288.7 1045.6,297.7 1067.6,297.7 1088.8,297.7 1110.8,297.7 1132,297.7 1167.5,297.7 1202.6,297.7 
				1202.6,288.7 1202.6,267.6 1202.6,238.3 1202.6,216.3 1202.6,195.1 1202.6,173.1 1202.6,151.9 1202.6,129.9 1202.6,108.7 
				1202.6,86.7 1202.6,57.4 1202.6,36.3 1202.6,27.3 			"/>
			<g>
				<path d="M1103.9,168c0,2.8-1.7,4.3-3.8,4.3c-2.1,0-3.6-1.7-3.6-4.1c0-2.6,1.6-4.2,3.8-4.2C1102.5,163.9,1103.9,165.6,1103.9,168
					z M1097.7,168.2c0,1.7,0.9,3.3,2.6,3.3s2.6-1.5,2.6-3.4c0-1.6-0.8-3.3-2.6-3.3S1097.7,166.4,1097.7,168.2z"/>
				<path d="M1109.4,171.9c-0.3,0.1-0.9,0.3-1.7,0.3c-1.8,0-2.9-1.2-2.9-3s1.2-3.1,3.1-3.1c0.6,0,1.2,0.2,1.5,0.3l-0.2,0.8
					c-0.3-0.1-0.6-0.3-1.2-0.3c-1.3,0-2.1,1-2.1,2.2c0,1.3,0.9,2.2,2,2.2c0.6,0,1-0.2,1.3-0.3L1109.4,171.9z"/>
				<path d="M1112.1,164.7v1.7h1.5v0.8h-1.5v3.1c0,0.7,0.2,1.1,0.8,1.1c0.3,0,0.5,0,0.6-0.1v0.8c-0.2,0.1-0.5,0.1-0.9,0.1
					c-0.5,0-0.9-0.2-1.1-0.4c-0.3-0.3-0.4-0.8-0.4-1.5v-3.2h-0.9v-0.8h0.9v-1.4L1112.1,164.7z"/>
				<path d="M1120,169.2c0,2.1-1.5,3.1-2.9,3.1c-1.6,0-2.8-1.2-2.8-3c0-1.9,1.3-3.1,2.9-3.1C1118.9,166.2,1120,167.4,1120,169.2z
					 M1115.4,169.3c0,1.3,0.7,2.2,1.8,2.2c1,0,1.8-0.9,1.8-2.3c0-1-0.5-2.2-1.7-2.2S1115.4,168.2,1115.4,169.3z"/>
				<path d="M1122.7,172.2l-2.1-8.1h1.1l1,4.1c0.2,1,0.5,2,0.6,2.8l0,0c0.1-0.8,0.4-1.8,0.7-2.8l1.1-4.1h1.1l1,4.1
					c0.2,1,0.4,1.9,0.6,2.8l0,0c0.2-0.9,0.4-1.8,0.6-2.8l1.1-4.1h1.1l-2.3,8.1h-1.1l-1-4.2c-0.3-1-0.4-1.8-0.5-2.6l0,0
					c-0.1,0.8-0.3,1.6-0.6,2.6l-1.2,4.2H1122.7z"/>
				<path d="M1131.4,170.9c0.5,0.3,1.2,0.5,1.9,0.5c1.1,0,1.7-0.6,1.7-1.4s-0.4-1.2-1.5-1.6c-1.3-0.5-2.1-1.2-2.1-2.3
					c0-1.3,1-2.2,2.6-2.2c0.8,0,1.4,0.2,1.8,0.4l-0.3,0.9c-0.3-0.1-0.8-0.4-1.5-0.4c-1.1,0-1.5,0.7-1.5,1.2c0,0.8,0.5,1.1,1.6,1.6
					c1.4,0.5,2.1,1.2,2.1,2.4c0,1.2-0.9,2.3-2.8,2.3c-0.8,0-1.6-0.2-2.1-0.5L1131.4,170.9z"/>
				<path d="M1137,172.2v-0.6l0.8-0.8c2-1.9,2.9-2.9,2.9-4.1c0-0.8-0.4-1.5-1.5-1.5c-0.7,0-1.3,0.4-1.7,0.7l-0.3-0.7
					c0.5-0.5,1.3-0.8,2.2-0.8c1.7,0,2.4,1.2,2.4,2.3c0,1.4-1,2.6-2.7,4.2l-0.6,0.6l0,0h3.5v0.9h-5L1137,172.2L1137,172.2z"/>
				<path d="M1143.1,170.2c0-1,0.6-1.7,1.5-2.1l0,0c-0.9-0.4-1.2-1.1-1.2-1.8c0-1.2,1-2.1,2.4-2.1c1.5,0,2.3,0.9,2.3,1.9
					c0,0.7-0.3,1.4-1.3,1.8l0,0c1,0.4,1.6,1.1,1.6,2c0,1.4-1.2,2.3-2.7,2.3C1144.1,172.3,1143.1,171.3,1143.1,170.2z M1147.3,170.1
					c0-0.9-0.7-1.4-1.7-1.7c-0.9,0.3-1.4,0.9-1.4,1.6c0,0.8,0.6,1.5,1.6,1.5C1146.7,171.5,1147.3,170.9,1147.3,170.1z M1144.4,166.2
					c0,0.8,0.6,1.2,1.5,1.4c0.7-0.2,1.2-0.7,1.2-1.4c0-0.6-0.4-1.3-1.3-1.3C1144.9,165,1144.4,165.6,1144.4,166.2z"/>
				<path d="M1151.7,165.3L1151.7,165.3l-1.4,0.7l-0.2-0.8l1.7-0.9h0.9v7.8h-1V165.3z"/>
				<path d="M1157.8,165.3L1157.8,165.3l-1.4,0.7l-0.2-0.8l1.7-0.9h0.9v7.8h-1V165.3z"/>
			</g>
			<rect x="952.2" y="100.3" class="st2" width="108" height="151.2"/>
			<g>
				<path d="M993.8,157.6v1.7h1.5v0.8h-1.5v3.1c0,0.7,0.2,1.1,0.8,1.1c0.3,0,0.5,0,0.6-0.1v0.8c-0.2,0.1-0.5,0.1-0.9,0.1
					c-0.5,0-0.9-0.2-1.1-0.4c-0.3-0.3-0.4-0.8-0.4-1.5V160h-0.9v-0.8h0.9v-1.4L993.8,157.6z"/>
				<path d="M1001.6,162.1c0,2.1-1.5,3.1-2.9,3.1c-1.6,0-2.8-1.2-2.8-3c0-1.9,1.3-3.1,2.9-3.1
					C1000.5,159.1,1001.6,160.3,1001.6,162.1z M997,162.2c0,1.3,0.7,2.2,1.8,2.2c1,0,1.8-0.9,1.8-2.3c0-1-0.5-2.2-1.7-2.2
					C997.6,159.9,997,161.1,997,162.2z"/>
				<path d="M1007.8,163.5c0,0.6,0,1.1,0,1.6h-0.9l-0.1-0.9l0,0c-0.3,0.5-0.9,1.1-1.9,1.1c-0.9,0-2-0.5-2-2.5v-3.4h1.1v3.2
					c0,1.1,0.3,1.8,1.3,1.8c0.7,0,1.2-0.5,1.4-1c0.1-0.2,0.1-0.3,0.1-0.5v-3.6h1.1L1007.8,163.5L1007.8,163.5z"/>
				<path d="M1013.7,164.8c-0.3,0.1-0.9,0.3-1.7,0.3c-1.8,0-2.9-1.2-2.9-3s1.2-3.1,3.1-3.1c0.6,0,1.2,0.2,1.5,0.3l-0.2,0.8
					c-0.3-0.1-0.6-0.3-1.2-0.3c-1.3,0-2.1,1-2.1,2.2c0,1.3,0.9,2.2,2,2.2c0.6,0,1-0.2,1.3-0.3L1013.7,164.8z"/>
				<path d="M1015,156.5h1.1v3.6l0,0c0.2-0.3,0.4-0.6,0.8-0.7c0.3-0.2,0.7-0.3,1.1-0.3c0.8,0,2,0.5,2,2.5v3.5h-1.1v-3.3
					c0-0.9-0.3-1.7-1.3-1.7c-0.7,0-1.2,0.5-1.4,1.1c-0.1,0.1-0.1,0.3-0.1,0.5v3.5h-1.1V156.5z"/>
				<path d="M996.6,179.2c-0.3,0.1-0.9,0.3-1.7,0.3c-1.8,0-2.9-1.2-2.9-3s1.2-3.1,3.1-3.1c0.6,0,1.2,0.2,1.5,0.3l-0.2,0.8
					c-0.3-0.1-0.6-0.3-1.2-0.3c-1.3,0-2.1,1-2.1,2.2c0,1.3,0.9,2.2,2,2.2c0.6,0,1-0.2,1.3-0.3L996.6,179.2z"/>
				<path d="M1001.1,179.5l-0.1-0.7l0,0c-0.3,0.5-0.9,0.9-1.8,0.9c-1.2,0-1.8-0.8-1.8-1.7c0-1.4,1.2-2.2,3.5-2.2v-0.1
					c0-0.5-0.1-1.3-1.3-1.3c-0.5,0-1.1,0.2-1.5,0.4l-0.2-0.7c0.5-0.3,1.2-0.5,1.9-0.5c1.8,0,2.2,1.2,2.2,2.4v2.2c0,0.5,0,1,0.1,1.4
					L1001.1,179.5L1001.1,179.5z M1000.9,176.5c-1.2,0-2.5,0.2-2.5,1.3c0,0.7,0.5,1,1,1c0.8,0,1.2-0.5,1.4-1c0-0.1,0.1-0.2,0.1-0.3
					V176.5z"/>
				<path d="M1003.6,179.5c0-0.4,0-1,0-1.5v-7h1v3.6l0,0c0.4-0.6,1-1.1,2-1.1c1.4,0,2.5,1.2,2.4,3c0,2.1-1.3,3.1-2.6,3.1
					c-0.8,0-1.5-0.3-1.9-1.1l0,0v1H1003.6z M1004.7,177.1c0,0.1,0,0.3,0,0.4c0.2,0.7,0.8,1.2,1.6,1.2c1.1,0,1.8-0.9,1.8-2.2
					c0-1.2-0.6-2.2-1.7-2.2c-0.7,0-1.4,0.5-1.6,1.3c0,0.1-0.1,0.3-0.1,0.4V177.1z"/>
				<path d="M1010.5,170.9h1.1v8.5h-1.1V170.9z"/>
				<path d="M1013.9,176.7c0,1.4,0.9,2,2,2c0.8,0,1.2-0.1,1.6-0.3l0.2,0.8c-0.4,0.2-1,0.4-1.9,0.4c-1.8,0-2.9-1.2-2.9-2.9
					c0-1.7,1-3.1,2.7-3.1c1.9,0,2.4,1.7,2.4,2.7c0,0.2,0,0.4,0,0.5L1013.9,176.7L1013.9,176.7z M1017,176c0-0.7-0.3-1.7-1.5-1.7
					c-1.1,0-1.5,1-1.6,1.7H1017z"/>
			</g>
			<rect x="1074.6" y="93.1" class="st2" width="108" height="158.4"/>
			<circle class="st4" cx="1092.6" cy="110.9" r="4.3"/>
			<circle class="st4" cx="1164.6" cy="110.9" r="4.3"/>
			<circle class="st4" cx="1092.6" cy="182.9" r="4.3"/>
			<circle class="st4" cx="1164.6" cy="182.9" r="4.3"/>
			<circle class="st4" cx="1048.9" cy="120.1" r="4.3"/>
			<circle class="st4" cx="963.4" cy="228.1" r="4.3"/>
			<polygon class="st3" points="821.8,86.1 821.8,56 812.8,56 812.8,35.3 792.1,35.3 792.1,26.3 762,26.3 762,35.3 740.8,35.3 
				740.8,26.3 718.8,26.3 718.8,35.3 697.6,35.3 697.6,26.3 675.6,26.3 675.6,35.3 654.4,35.3 654.4,26.3 632.4,26.3 632.4,35.3 
				611.2,35.3 611.2,26.3 589.2,26.3 589.2,35.3 568,35.3 568,26.3 546,26.3 546,35.3 524.8,35.3 524.8,26.3 503.2,26.3 502.8,26.3 
				481.6,26.3 459.6,26.3 438.4,26.3 416.4,26.3 395.2,26.3 365.1,26.3 354,26.3 354,296.7 365.1,296.7 395.2,296.7 416.4,296.7 
				438.4,296.7 459.6,296.7 481.6,296.7 502.8,296.7 503.2,296.7 524.8,296.7 524.8,287.7 546,287.7 546,296.7 568,296.7 568,287.7 
				589.2,287.7 589.2,296.7 611.2,296.7 611.2,287.7 632.4,287.7 632.4,296.7 654.4,296.7 654.4,287.7 675.6,287.7 675.6,296.7 
				697.6,296.7 697.6,287.7 718.8,287.7 718.8,296.7 740.8,296.7 740.8,287.7 762,287.7 762,296.7 792.1,296.7 792.1,287.7 
				812.8,287.7 812.8,267 821.8,267 821.8,236.9 812.8,236.9 812.8,215.7 821.8,215.7 821.8,193.7 812.8,193.7 812.8,172.5 
				821.8,172.5 821.8,150.5 812.8,150.5 812.8,129.3 821.8,129.3 821.8,107.3 812.8,107.3 812.8,86.1 			"/>
		</g>
	</g>
	<g>
		<g>
			<g>
				<path d="M515,439.7c0.5-0.1,1.2-0.2,2-0.2c1,0,1.8,0.2,2.3,0.7c0.4,0.4,0.7,1,0.7,1.7s-0.2,1.3-0.6,1.7
					c-0.6,0.6-1.5,0.9-2.5,0.9c-0.3,0-0.6,0-0.8-0.1v3.2h-1v-7.9L515,439.7L515,439.7z M516.1,443.6c0.2,0.1,0.5,0.1,0.9,0.1
					c1.3,0,2-0.6,2-1.7s-0.8-1.6-1.9-1.6c-0.5,0-0.8,0-1,0.1V443.6z"/>
				<path d="M521.2,443.7c0-0.7,0-1.3,0-1.8h0.9v1.1l0,0c0.3-0.8,0.9-1.3,1.6-1.3c0.1,0,0.2,0,0.3,0v1c-0.1,0-0.2,0-0.4,0
					c-0.7,0-1.3,0.6-1.4,1.4c0,0.1,0,0.3,0,0.5v3.1h-1L521.2,443.7L521.2,443.7z"/>
				<path d="M530.2,444.7c0,2.1-1.5,3.1-2.9,3.1c-1.6,0-2.8-1.2-2.8-3c0-1.9,1.3-3.1,2.9-3.1C529.1,441.7,530.2,442.9,530.2,444.7z
					 M525.6,444.8c0,1.3,0.7,2.2,1.8,2.2c1,0,1.8-0.9,1.8-2.3c0-1-0.5-2.2-1.7-2.2C526.2,442.5,525.6,443.7,525.6,444.8z"/>
				<path d="M532.8,440.2v1.7h1.5v0.8h-1.5v3.1c0,0.7,0.2,1.1,0.8,1.1c0.3,0,0.5,0,0.6-0.1v0.8c-0.2,0.1-0.5,0.1-0.9,0.1
					c-0.5,0-0.9-0.2-1.1-0.4c-0.3-0.3-0.4-0.8-0.4-1.5v-3.2h-0.9v-0.8h0.9v-1.4L532.8,440.2z"/>
				<path d="M540.7,444.7c0,2.1-1.5,3.1-2.9,3.1c-1.6,0-2.8-1.2-2.8-3c0-1.9,1.3-3.1,2.9-3.1C539.6,441.7,540.7,442.9,540.7,444.7z
					 M536.1,444.8c0,1.3,0.7,2.2,1.8,2.2c1,0,1.8-0.9,1.8-2.3c0-1-0.5-2.2-1.7-2.2C536.7,442.5,536.1,443.7,536.1,444.8z"/>
				<path d="M542,447.7c0-0.4,0-1,0-1.5v-7h1v3.6l0,0c0.4-0.6,1-1.1,2-1.1c1.4,0,2.5,1.2,2.4,3c0,2.1-1.3,3.1-2.6,3.1
					c-0.8,0-1.5-0.3-1.9-1.1l0,0v1H542z M543.1,445.3c0,0.1,0,0.3,0,0.4c0.2,0.7,0.8,1.2,1.6,1.2c1.1,0,1.8-0.9,1.8-2.2
					c0-1.2-0.6-2.2-1.7-2.2c-0.7,0-1.4,0.5-1.6,1.3c0,0.1-0.1,0.3-0.1,0.4V445.3z"/>
				<path d="M554.1,444.7c0,2.1-1.5,3.1-2.9,3.1c-1.6,0-2.8-1.2-2.8-3c0-1.9,1.3-3.1,2.9-3.1C553,441.7,554.1,442.9,554.1,444.7z
					 M549.5,444.8c0,1.3,0.7,2.2,1.8,2.2c1,0,1.8-0.9,1.8-2.3c0-1-0.5-2.2-1.7-2.2C550.1,442.5,549.5,443.7,549.5,444.8z"/>
				<path d="M558.7,447.7l-0.1-0.7l0,0c-0.3,0.5-0.9,0.9-1.8,0.9c-1.2,0-1.8-0.8-1.8-1.7c0-1.4,1.2-2.2,3.5-2.2v-0.1
					c0-0.5-0.1-1.3-1.3-1.3c-0.5,0-1.1,0.2-1.5,0.4l-0.2-0.7c0.5-0.3,1.2-0.5,1.9-0.5c1.8,0,2.2,1.2,2.2,2.4v2.2c0,0.5,0,1,0.1,1.4
					L558.7,447.7L558.7,447.7z M558.5,444.7c-1.2,0-2.5,0.2-2.5,1.3c0,0.7,0.5,1,1,1c0.8,0,1.2-0.5,1.4-1c0-0.1,0.1-0.2,0.1-0.3
					V444.7z"/>
				<path d="M561.3,443.7c0-0.7,0-1.3,0-1.8h0.9v1.1l0,0c0.3-0.8,0.9-1.3,1.6-1.3c0.1,0,0.2,0,0.3,0v1c-0.1,0-0.2,0-0.4,0
					c-0.7,0-1.3,0.6-1.4,1.4c0,0.1,0,0.3,0,0.5v3.1h-1L561.3,443.7L561.3,443.7z"/>
				<path d="M570.1,439.1v7c0,0.5,0,1.1,0,1.5h-0.9v-1l0,0c-0.3,0.6-1,1.1-2,1.1c-1.4,0-2.5-1.2-2.5-3c0-1.9,1.2-3.1,2.6-3.1
					c0.9,0,1.5,0.4,1.8,0.9l0,0V439h1L570.1,439.1L570.1,439.1z M569,444.2c0-0.1,0-0.3,0-0.4c-0.2-0.7-0.7-1.2-1.5-1.2
					c-1.1,0-1.7,1-1.7,2.2s0.6,2.1,1.7,2.1c0.7,0,1.4-0.5,1.5-1.3c0-0.1,0-0.3,0-0.5V444.2z"/>
			</g>
			<rect x="410.3" y="313" class="st2" width="297" height="247"/>
			<polygon class="st3" points="1167.5,302.3 1132,302.3 1110.8,302.3 1088.8,302.3 1067.6,302.3 1045.6,302.3 1045.6,311.3 
				1024.4,311.3 1024.4,302.3 1002.4,302.3 1002.4,311.3 981.2,311.3 981.2,302.3 959.2,302.3 959.2,311.3 938,311.3 938,302.3 
				916,302.3 916,311.3 894.8,311.3 894.8,302.3 859.3,302.3 859.3,311.3 824.2,311.3 824.2,332.4 833.2,332.4 833.2,361.7 
				824.2,361.7 824.2,383.7 833.2,383.7 833.2,404.9 824.2,404.9 824.2,426.9 833.2,426.9 833.2,448.1 824.2,448.1 824.2,470.1 
				833.2,470.1 833.2,491.3 824.2,491.3 824.2,513.3 833.2,513.3 833.2,542.6 824.2,542.6 824.2,563.7 859.3,563.7 859.3,572.7 
				894.8,572.7 894.8,563.7 916,563.7 916,572.7 938,572.7 938,563.7 959.2,563.7 959.2,572.7 981.2,572.7 981.2,563.7 
				1002.4,563.7 1002.4,572.7 1024.4,572.7 1024.4,563.7 1045.6,563.7 1045.6,572.7 1067.6,572.7 1088.8,572.7 1110.8,572.7 
				1132,572.7 1167.5,572.7 1202.6,572.7 1202.6,563.7 1202.6,542.6 1202.6,513.3 1202.6,491.3 1202.6,470.1 1202.6,448.1 
				1202.6,426.9 1202.6,404.9 1202.6,383.7 1202.6,361.7 1202.6,332.4 1202.6,311.3 1202.6,302.3 			"/>
			<g>
				<path d="M1103.9,443c0,2.8-1.7,4.3-3.8,4.3c-2.1,0-3.6-1.7-3.6-4.1c0-2.6,1.6-4.2,3.8-4.2C1102.5,438.9,1103.9,440.6,1103.9,443
					z M1097.7,443.2c0,1.7,0.9,3.3,2.6,3.3s2.6-1.5,2.6-3.4c0-1.6-0.8-3.3-2.6-3.3S1097.7,441.4,1097.7,443.2z"/>
				<path d="M1109.4,446.9c-0.3,0.1-0.9,0.3-1.7,0.3c-1.8,0-2.9-1.2-2.9-3s1.2-3.1,3.1-3.1c0.6,0,1.2,0.2,1.5,0.3l-0.2,0.8
					c-0.3-0.1-0.6-0.3-1.2-0.3c-1.3,0-2.1,1-2.1,2.2c0,1.3,0.9,2.2,2,2.2c0.6,0,1-0.2,1.3-0.3L1109.4,446.9z"/>
				<path d="M1112.1,439.7v1.7h1.5v0.8h-1.5v3.1c0,0.7,0.2,1.1,0.8,1.1c0.3,0,0.5,0,0.6-0.1v0.8c-0.2,0.1-0.5,0.1-0.9,0.1
					c-0.5,0-0.9-0.2-1.1-0.4c-0.3-0.3-0.4-0.8-0.4-1.5v-3.2h-0.9v-0.8h0.9v-1.4L1112.1,439.7z"/>
				<path d="M1120,444.2c0,2.1-1.5,3.1-2.9,3.1c-1.6,0-2.8-1.2-2.8-3c0-1.9,1.3-3.1,2.9-3.1C1118.9,441.2,1120,442.4,1120,444.2z
					 M1115.4,444.3c0,1.3,0.7,2.2,1.8,2.2c1,0,1.8-0.9,1.8-2.3c0-1-0.5-2.2-1.7-2.2S1115.4,443.2,1115.4,444.3z"/>
				<path d="M1122.7,447.2l-2.1-8.1h1.1l1,4.1c0.2,1,0.5,2,0.6,2.8l0,0c0.1-0.8,0.4-1.8,0.7-2.8l1.1-4.1h1.1l1,4.1
					c0.2,1,0.4,1.9,0.6,2.8l0,0c0.2-0.9,0.4-1.8,0.6-2.8l1.1-4.1h1.1l-2.3,8.1h-1.1l-1-4.2c-0.3-1-0.4-1.8-0.5-2.6l0,0
					c-0.1,0.8-0.3,1.6-0.6,2.6l-1.2,4.2H1122.7z"/>
				<path d="M1131.4,445.9c0.5,0.3,1.2,0.5,1.9,0.5c1.1,0,1.7-0.6,1.7-1.4s-0.4-1.2-1.5-1.6c-1.3-0.5-2.1-1.2-2.1-2.3
					c0-1.3,1-2.2,2.6-2.2c0.8,0,1.4,0.2,1.8,0.4l-0.3,0.9c-0.3-0.1-0.8-0.4-1.5-0.4c-1.1,0-1.5,0.7-1.5,1.2c0,0.8,0.5,1.1,1.6,1.6
					c1.4,0.5,2.1,1.2,2.1,2.4c0,1.2-0.9,2.3-2.8,2.3c-0.8,0-1.6-0.2-2.1-0.5L1131.4,445.9z"/>
				<path d="M1137,447.2v-0.6l0.8-0.8c2-1.9,2.9-2.9,2.9-4.1c0-0.8-0.4-1.5-1.5-1.5c-0.7,0-1.3,0.4-1.7,0.7l-0.3-0.7
					c0.5-0.5,1.3-0.8,2.2-0.8c1.7,0,2.4,1.2,2.4,2.3c0,1.4-1,2.6-2.7,4.2l-0.6,0.6l0,0h3.5v0.9h-5L1137,447.2L1137,447.2z"/>
				<path d="M1143.1,445.2c0-1,0.6-1.7,1.5-2.1l0,0c-0.9-0.4-1.2-1.1-1.2-1.8c0-1.2,1-2.1,2.4-2.1c1.5,0,2.3,0.9,2.3,1.9
					c0,0.7-0.3,1.4-1.3,1.8l0,0c1,0.4,1.6,1.1,1.6,2c0,1.4-1.2,2.3-2.7,2.3C1144.1,447.3,1143.1,446.3,1143.1,445.2z M1147.3,445.1
					c0-0.9-0.7-1.4-1.7-1.7c-0.9,0.3-1.4,0.9-1.4,1.6c0,0.8,0.6,1.5,1.6,1.5C1146.7,446.5,1147.3,445.9,1147.3,445.1z M1144.4,441.2
					c0,0.8,0.6,1.2,1.5,1.4c0.7-0.2,1.2-0.7,1.2-1.4c0-0.6-0.4-1.3-1.3-1.3C1144.9,440,1144.4,440.6,1144.4,441.2z"/>
				<path d="M1151.7,440.3L1151.7,440.3l-1.4,0.7l-0.2-0.8l1.7-0.9h0.9v7.8h-1V440.3z"/>
				<path d="M1157.8,440.3L1157.8,440.3l-1.4,0.7l-0.2-0.8l1.7-0.9h0.9v7.8h-1V440.3z"/>
			</g>
			<rect x="952.2" y="375.3" class="st2" width="108" height="151.2"/>
			<g>
				<path d="M993.8,432.6v1.7h1.5v0.8h-1.5v3.1c0,0.7,0.2,1.1,0.8,1.1c0.3,0,0.5,0,0.6-0.1v0.8c-0.2,0.1-0.5,0.1-0.9,0.1
					c-0.5,0-0.9-0.2-1.1-0.4c-0.3-0.3-0.4-0.8-0.4-1.5V435h-0.9v-0.8h0.9v-1.4L993.8,432.6z"/>
				<path d="M1001.6,437.1c0,2.1-1.5,3.1-2.9,3.1c-1.6,0-2.8-1.2-2.8-3c0-1.9,1.3-3.1,2.9-3.1
					C1000.5,434.1,1001.6,435.3,1001.6,437.1z M997,437.2c0,1.3,0.7,2.2,1.8,2.2c1,0,1.8-0.9,1.8-2.3c0-1-0.5-2.2-1.7-2.2
					C997.6,434.9,997,436.1,997,437.2z"/>
				<path d="M1007.8,438.5c0,0.6,0,1.1,0,1.6h-0.9l-0.1-0.9l0,0c-0.3,0.5-0.9,1.1-1.9,1.1c-0.9,0-2-0.5-2-2.5v-3.4h1.1v3.2
					c0,1.1,0.3,1.8,1.3,1.8c0.7,0,1.2-0.5,1.4-1c0.1-0.2,0.1-0.3,0.1-0.5v-3.6h1.1L1007.8,438.5L1007.8,438.5z"/>
				<path d="M1013.7,439.8c-0.3,0.1-0.9,0.3-1.7,0.3c-1.8,0-2.9-1.2-2.9-3s1.2-3.1,3.1-3.1c0.6,0,1.2,0.2,1.5,0.3l-0.2,0.8
					c-0.3-0.1-0.6-0.3-1.2-0.3c-1.3,0-2.1,1-2.1,2.2c0,1.3,0.9,2.2,2,2.2c0.6,0,1-0.2,1.3-0.3L1013.7,439.8z"/>
				<path d="M1015,431.5h1.1v3.6l0,0c0.2-0.3,0.4-0.6,0.8-0.7c0.3-0.2,0.7-0.3,1.1-0.3c0.8,0,2,0.5,2,2.5v3.5h-1.1v-3.3
					c0-0.9-0.3-1.7-1.3-1.7c-0.7,0-1.2,0.5-1.4,1.1c-0.1,0.1-0.1,0.3-0.1,0.5v3.5h-1.1V431.5z"/>
				<path d="M996.6,454.2c-0.3,0.1-0.9,0.3-1.7,0.3c-1.8,0-2.9-1.2-2.9-3s1.2-3.1,3.1-3.1c0.6,0,1.2,0.2,1.5,0.3l-0.2,0.8
					c-0.3-0.1-0.6-0.3-1.2-0.3c-1.3,0-2.1,1-2.1,2.2c0,1.3,0.9,2.2,2,2.2c0.6,0,1-0.2,1.3-0.3L996.6,454.2z"/>
				<path d="M1001.1,454.5l-0.1-0.7l0,0c-0.3,0.5-0.9,0.9-1.8,0.9c-1.2,0-1.8-0.8-1.8-1.7c0-1.4,1.2-2.2,3.5-2.2v-0.1
					c0-0.5-0.1-1.3-1.3-1.3c-0.5,0-1.1,0.2-1.5,0.4l-0.2-0.7c0.5-0.3,1.2-0.5,1.9-0.5c1.8,0,2.2,1.2,2.2,2.4v2.2c0,0.5,0,1,0.1,1.4
					L1001.1,454.5L1001.1,454.5z M1000.9,451.5c-1.2,0-2.5,0.2-2.5,1.3c0,0.7,0.5,1,1,1c0.8,0,1.2-0.5,1.4-1c0-0.1,0.1-0.2,0.1-0.3
					V451.5z"/>
				<path d="M1003.6,454.5c0-0.4,0-1,0-1.5v-7h1v3.6l0,0c0.4-0.6,1-1.1,2-1.1c1.4,0,2.5,1.2,2.4,3c0,2.1-1.3,3.1-2.6,3.1
					c-0.8,0-1.5-0.3-1.9-1.1l0,0v1H1003.6z M1004.7,452.1c0,0.1,0,0.3,0,0.4c0.2,0.7,0.8,1.2,1.6,1.2c1.1,0,1.8-0.9,1.8-2.2
					c0-1.2-0.6-2.2-1.7-2.2c-0.7,0-1.4,0.5-1.6,1.3c0,0.1-0.1,0.3-0.1,0.4V452.1z"/>
				<path d="M1010.5,445.9h1.1v8.5h-1.1V445.9z"/>
				<path d="M1013.9,451.7c0,1.4,0.9,2,2,2c0.8,0,1.2-0.1,1.6-0.3l0.2,0.8c-0.4,0.2-1,0.4-1.9,0.4c-1.8,0-2.9-1.2-2.9-2.9
					c0-1.7,1-3.1,2.7-3.1c1.9,0,2.4,1.7,2.4,2.7c0,0.2,0,0.4,0,0.5L1013.9,451.7L1013.9,451.7z M1017,451c0-0.7-0.3-1.7-1.5-1.7
					c-1.1,0-1.5,1-1.6,1.7H1017z"/>
			</g>
			<rect x="1074.6" y="368.1" class="st2" width="108" height="158.4"/>
			<circle class="st4" cx="1092.6" cy="385.9" r="4.3"/>
			<circle class="st4" cx="1164.6" cy="385.9" r="4.3"/>
			<circle class="st4" cx="1092.6" cy="457.9" r="4.3"/>
			<circle class="st4" cx="1164.6" cy="457.9" r="4.3"/>
			<circle class="st4" cx="1048.9" cy="395.1" r="4.3"/>
			<circle class="st4" cx="963.4" cy="503.1" r="4.3"/>
			<polygon class="st3" points="821.8,361.1 821.8,331 812.8,331 812.8,310.3 792.1,310.3 792.1,301.3 762,301.3 762,310.3 
				740.8,310.3 740.8,301.3 718.8,301.3 718.8,310.3 697.6,310.3 697.6,301.3 675.6,301.3 675.6,310.3 654.4,310.3 654.4,301.3 
				632.4,301.3 632.4,310.3 611.2,310.3 611.2,301.3 589.2,301.3 589.2,310.3 568,310.3 568,301.3 546,301.3 546,310.3 524.8,310.3 
				524.8,301.3 503.2,301.3 502.8,301.3 481.6,301.3 459.6,301.3 438.4,301.3 416.4,301.3 395.2,301.3 365.1,301.3 354,301.3 
				354,571.7 365.1,571.7 395.2,571.7 416.4,571.7 438.4,571.7 459.6,571.7 481.6,571.7 502.8,571.7 503.2,571.7 524.8,571.7 
				524.8,562.7 546,562.7 546,571.7 568,571.7 568,562.7 589.2,562.7 589.2,571.7 611.2,571.7 611.2,562.7 632.4,562.7 632.4,571.7 
				654.4,571.7 654.4,562.7 675.6,562.7 675.6,571.7 697.6,571.7 697.6,562.7 718.8,562.7 718.8,571.7 740.8,571.7 740.8,562.7 
				762,562.7 762,571.7 792.1,571.7 792.1,562.7 812.8,562.7 812.8,542 821.8,542 821.8,511.9 812.8,511.9 812.8,490.7 821.8,490.7 
				821.8,468.7 812.8,468.7 812.8,447.5 821.8,447.5 821.8,425.5 812.8,425.5 812.8,404.3 821.8,404.3 821.8,382.3 812.8,382.3 
				812.8,361.1 			"/>
		</g>
	</g>
</g>
</svg>
