<?xml version="1.0" encoding="utf-8"?>
<!-- Generator: Adobe Illustrator 22.1.0, SVG Export Plug-In . SVG Version: 6.00 Build 0)  -->
<svg version="1.1" id="Layer_1" xmlns="http://www.w3.org/2000/svg" xmlns:xlink="http://www.w3.org/1999/xlink" x="0px" y="0px"
	 viewBox="0 0 1224 547.2" style="enable-background:new 0 0 1224 547.2;" xml:space="preserve">
<style type="text/css">
	.st0{fill:none;stroke:#FF00FF;stroke-width:0.9;}
	.st1{fill:#FFFFFF;stroke:#000000;stroke-miterlimit:10;}
	.st2{fill:none;stroke:#241F20;stroke-miterlimit:10;}
	.st3{fill:none;stroke:#3455AF;stroke-miterlimit:10;}
	.st4{fill:#241F20;}
	.st5{font-family:'MyriadPro-Regular';}
	.st6{font-size:12px;}
</style>
<g transform="translate(22.5, 22.5) ">
	<polygon class="st0" points="-4.5,-4.5 24.6,-4.5 24.6,4.5 53.1,4.5 53.1,-4.5 75,-4.5 75,4.5 96.3,4.5 96.3,-4.5 118.2,-4.5 
		118.2,4.5 139.5,4.5 139.5,-4.5 161.4,-4.5 161.4,4.5 182.7,4.5 182.7,-4.5 204.6,-4.5 204.6,4.5 225.9,4.5 225.9,-4.5 247.8,-4.5 
		247.8,4.5 269.1,4.5 269.1,-4.5 291,-4.5 291,4.5 312.3,4.5 312.3,-4.5 334.2,-4.5 334.2,4.5 362.7,4.5 362.7,-4.5 391.8,-4.5 
		391.8,18.8 382.8,18.8 382.8,41.6 391.8,41.6 391.8,64.9 382.8,64.9 382.8,87.7 391.8,87.7 391.8,111 362.7,111 362.7,102 
		334.2,102 334.2,111 312.3,111 312.3,102 291,102 291,111 269.1,111 269.1,102 247.8,102 247.8,111 225.9,111 225.9,102 204.6,102 
		204.6,111 182.7,111 182.7,102 161.4,102 161.4,111 139.5,111 139.5,102 118.2,102 118.2,111 96.3,111 96.3,102 75,102 75,111 
		53.1,111 53.1,102 24.6,102 24.6,111 -4.5,111 -4.5,87.7 4.5,87.7 4.5,64.9 -4.5,64.9 -4.5,41.6 4.5,41.6 4.5,18.8 -4.5,18.8 	"/>
</g>
<g transform="translate(517.86, 22.5) ">
	<polygon class="st0" points="-103.6,-4.5 -74.5,-4.5 -74.5,4.5 -46,4.5 -46,-4.5 -24.1,-4.5 -24.1,4.5 -2.8,4.5 -2.8,-4.5 
		19.1,-4.5 19.1,4.5 40.4,4.5 40.4,-4.5 62.3,-4.5 62.3,4.5 83.6,4.5 83.6,-4.5 105.5,-4.5 105.5,4.5 126.8,4.5 126.8,-4.5 
		148.7,-4.5 148.7,4.5 170,4.5 170,-4.5 191.9,-4.5 191.9,4.5 213.2,4.5 213.2,-4.5 235.1,-4.5 235.1,4.5 263.6,4.5 263.6,-4.5 
		292.7,-4.5 292.7,18.8 283.7,18.8 283.7,41.6 292.7,41.6 292.7,64.9 283.7,64.9 283.7,87.7 292.7,87.7 292.7,111 263.6,111 
		263.6,102 235.1,102 235.1,111 213.2,111 213.2,102 191.9,102 191.9,111 170,111 170,102 148.7,102 148.7,111 126.8,111 126.8,102 
		105.5,102 105.5,111 83.6,111 83.6,102 62.3,102 62.3,111 40.4,111 40.4,102 19.1,102 19.1,111 -2.8,111 -2.8,102 -24.1,102 
		-24.1,111 -46,111 -46,102 -74.5,102 -74.5,111 -103.6,111 -103.6,87.7 -94.6,87.7 -94.6,64.9 -103.6,64.9 -103.6,41.6 -94.6,41.6 
		-94.6,18.8 -103.6,18.8 	"/>
</g>
<g transform="translate(1013.2199999999999, 22.5) ">
	<polygon class="st0" points="-193.6,-4.5 -173.6,-4.5 -173.6,4.5 -145,4.5 -145,-4.5 -123.2,-4.5 -123.2,4.5 -101.8,4.5 
		-101.8,-4.5 -80,-4.5 -80,4.5 -58.6,4.5 -58.6,-4.5 -36.8,-4.5 -36.8,4.5 -15.4,4.5 -15.4,-4.5 6.4,-4.5 6.4,4.5 27.8,4.5 
		27.8,-4.5 49.6,-4.5 49.6,4.5 71,4.5 71,-4.5 92.8,-4.5 92.8,4.5 114.2,4.5 114.2,-4.5 136,-4.5 136,4.5 164.6,4.5 164.6,-4.5 
		184.6,-4.5 184.6,18.5 193.6,18.5 193.6,41.9 184.6,41.9 184.6,64.6 193.6,64.6 193.6,87.9 184.6,87.9 184.6,111 164.6,111 
		164.6,102 136,102 136,111 114.2,111 114.2,102 92.8,102 92.8,111 71,111 71,102 49.6,102 49.6,111 27.8,111 27.8,102 6.4,102 
		6.4,111 -15.4,111 -15.4,102 -36.8,102 -36.8,111 -58.6,111 -58.6,102 -80,102 -80,111 -101.8,111 -101.8,102 -123.2,102 
		-123.2,111 -145,111 -145,102 -173.6,102 -173.6,111 -193.6,111 -193.6,87.9 -202.6,87.9 -202.6,64.6 -193.6,64.6 -193.6,41.9 
		-202.6,41.9 -202.6,18.5 -193.6,18.5 	"/>
</g>
<g transform="translate(1013.2199999999999, 166.86) ">
	<polygon class="st0" points="-193.6,-33.4 -173.6,-33.4 -173.6,-24.4 -145,-24.4 -145,-33.4 -123.2,-33.4 -123.2,-24.4 
		-101.8,-24.4 -101.8,-33.4 -80,-33.4 -80,-24.4 -58.6,-24.4 -58.6,-33.4 -36.8,-33.4 -36.8,-24.4 -15.4,-24.4 -15.4,-33.4 
		6.4,-33.4 6.4,-24.4 27.8,-24.4 27.8,-33.4 49.6,-33.4 49.6,-24.4 71,-24.4 71,-33.4 92.8,-33.4 92.8,-24.4 114.2,-24.4 
		114.2,-33.4 136,-33.4 136,-24.4 164.6,-24.4 164.6,-33.4 184.6,-33.4 184.6,-10.3 193.6,-10.3 193.6,13 184.6,13 184.6,35.7 
		193.6,35.7 193.6,59.1 184.6,59.1 184.6,82.1 164.6,82.1 164.6,73.1 136,73.1 136,82.1 114.2,82.1 114.2,73.1 92.8,73.1 92.8,82.1 
		71,82.1 71,73.1 49.6,73.1 49.6,82.1 27.8,82.1 27.8,73.1 6.4,73.1 6.4,82.1 -15.4,82.1 -15.4,73.1 -36.8,73.1 -36.8,82.1 
		-58.6,82.1 -58.6,73.1 -80,73.1 -80,82.1 -101.8,82.1 -101.8,73.1 -123.2,73.1 -123.2,82.1 -145,82.1 -145,73.1 -173.6,73.1 
		-173.6,82.1 -193.6,82.1 -193.6,59.1 -202.6,59.1 -202.6,35.7 -193.6,35.7 -193.6,13 -202.6,13 -202.6,-10.3 -193.6,-10.3 	"/>
</g>
<g transform="translate(22.5, 166.86) ">
	<polygon class="st0" points="4.5,-24.4 24.3,-24.4 24.3,-33.4 53.4,-33.4 53.4,-24.4 74.7,-24.4 74.7,-33.4 96.6,-33.4 96.6,-24.4 
		117.9,-24.4 117.9,-33.4 139.8,-33.4 139.8,-24.4 161.1,-24.4 161.1,-33.4 183,-33.4 183,-24.4 204.3,-24.4 204.3,-33.4 
		226.2,-33.4 226.2,-24.4 247.5,-24.4 247.5,-33.4 269.4,-33.4 269.4,-24.4 290.7,-24.4 290.7,-33.4 312.6,-33.4 312.6,-24.4 
		333.9,-24.4 333.9,-33.4 363,-33.4 363,-24.4 382.8,-24.4 382.8,-4.6 391.8,-4.6 391.8,24.5 382.8,24.5 382.8,45.8 391.8,45.8 
		391.8,67.7 382.8,67.7 382.8,89 391.8,89 391.8,110.9 382.8,110.9 382.8,132.2 391.8,132.2 391.8,154.1 382.8,154.1 382.8,175.4 
		391.8,175.4 391.8,197.3 382.8,197.3 382.8,218.6 391.8,218.6 391.8,240.5 382.8,240.5 382.8,261.8 391.8,261.8 391.8,283.7 
		382.8,283.7 382.8,305 391.8,305 391.8,334.1 382.8,334.1 382.8,353.9 363,353.9 363,362.9 333.9,362.9 333.9,353.9 312.6,353.9 
		312.6,362.9 290.7,362.9 290.7,353.9 269.4,353.9 269.4,362.9 247.5,362.9 247.5,353.9 226.2,353.9 226.2,362.9 204.3,362.9 
		204.3,353.9 183,353.9 183,362.9 161.1,362.9 161.1,353.9 139.8,353.9 139.8,362.9 117.9,362.9 117.9,353.9 96.6,353.9 96.6,362.9 
		74.7,362.9 74.7,353.9 53.4,353.9 53.4,362.9 24.3,362.9 24.3,353.9 4.5,353.9 4.5,334.1 -4.5,334.1 -4.5,305 4.5,305 4.5,283.7 
		-4.5,283.7 -4.5,261.8 4.5,261.8 4.5,240.5 -4.5,240.5 -4.5,218.6 4.5,218.6 4.5,197.3 -4.5,197.3 -4.5,175.4 4.5,175.4 4.5,154.1 
		-4.5,154.1 -4.5,132.2 4.5,132.2 4.5,110.9 -4.5,110.9 -4.5,89 4.5,89 4.5,67.7 -4.5,67.7 -4.5,45.8 4.5,45.8 4.5,24.5 -4.5,24.5 
		-4.5,-4.6 4.5,-4.6 	"/>
</g>
<g transform="translate(517.86, 166.86) ">
	<polygon class="st0" points="-94.6,-24.4 -74.8,-24.4 -74.8,-33.4 -45.7,-33.4 -45.7,-24.4 -24.4,-24.4 -24.4,-33.4 -2.5,-33.4 
		-2.5,-24.4 18.8,-24.4 18.8,-33.4 40.7,-33.4 40.7,-24.4 62,-24.4 62,-33.4 83.9,-33.4 83.9,-24.4 105.2,-24.4 105.2,-33.4 
		127.1,-33.4 127.1,-24.4 148.4,-24.4 148.4,-33.4 170.3,-33.4 170.3,-24.4 191.6,-24.4 191.6,-33.4 213.5,-33.4 213.5,-24.4 
		234.8,-24.4 234.8,-33.4 263.9,-33.4 263.9,-24.4 283.7,-24.4 283.7,-4.6 292.7,-4.6 292.7,24.5 283.7,24.5 283.7,45.8 292.7,45.8 
		292.7,67.7 283.7,67.7 283.7,89 292.7,89 292.7,110.9 283.7,110.9 283.7,132.2 292.7,132.2 292.7,154.1 283.7,154.1 283.7,175.4 
		292.7,175.4 292.7,197.3 283.7,197.3 283.7,218.6 292.7,218.6 292.7,240.5 283.7,240.5 283.7,261.8 292.7,261.8 292.7,283.7 
		283.7,283.7 283.7,305 292.7,305 292.7,334.1 283.7,334.1 283.7,353.9 263.9,353.9 263.9,362.9 234.8,362.9 234.8,353.9 
		213.5,353.9 213.5,362.9 191.6,362.9 191.6,353.9 170.3,353.9 170.3,362.9 148.4,362.9 148.4,353.9 127.1,353.9 127.1,362.9 
		105.2,362.9 105.2,353.9 83.9,353.9 83.9,362.9 62,362.9 62,353.9 40.7,353.9 40.7,362.9 18.8,362.9 18.8,353.9 -2.5,353.9 
		-2.5,362.9 -24.4,362.9 -24.4,353.9 -45.7,353.9 -45.7,362.9 -74.8,362.9 -74.8,353.9 -94.6,353.9 -94.6,334.1 -103.6,334.1 
		-103.6,305 -94.6,305 -94.6,283.7 -103.6,283.7 -103.6,261.8 -94.6,261.8 -94.6,240.5 -103.6,240.5 -103.6,218.6 -94.6,218.6 
		-94.6,197.3 -103.6,197.3 -103.6,175.4 -94.6,175.4 -94.6,154.1 -103.6,154.1 -103.6,132.2 -94.6,132.2 -94.6,110.9 -103.6,110.9 
		-103.6,89 -94.6,89 -94.6,67.7 -103.6,67.7 -103.6,45.8 -94.6,45.8 -94.6,24.5 -103.6,24.5 -103.6,-4.6 -94.6,-4.6 	"/>
</g>
<path class="st1" d="M369.1,71h-306c-4.9,0-9-4-9-9v0c0-4.9,4-9,9-9h306c4.9,0,9,4,9,9v0C378.1,67,374.1,71,369.1,71z"/>
<path class="st1" d="M765.4,71h-306c-4.9,0-9-4-9-9v0c0-4.9,4.1-9,9-9h306c5,0,9,4,9,9v0C774.4,67,770.4,71,765.4,71z"/>
<path class="st1" d="M1161.7,202h-306c-5,0-9-4.1-9-9v0c0-4.9,4-9,9-9h306c5,0,9,4.1,9,9v0C1170.7,197.9,1166.7,202,1161.7,202z"/>
<path class="st1" d="M1161.7,71h-306c-5,0-9-4-9-9v0c0-4.9,4-9,9-9h306c5,0,9,4,9,9v0C1170.7,67,1166.7,71,1161.7,71z"/>
<g>
	<circle class="st2" cx="216.1" cy="331.6" r="136.8"/>
	<circle class="st3" cx="216.1" cy="331.6" r="180"/>
	<circle class="st2" cx="54.1" cy="331.6" r="7.2"/>
	<circle class="st2" cx="378.1" cy="331.6" r="7.2"/>
	<circle class="st2" cx="216.1" cy="493.6" r="7.2"/>
	<circle class="st2" cx="216.1" cy="169.6" r="7.2"/>
	<text transform="matrix(1 0 0 1 158.6889 335.1541)" class="st4 st5 st6">Speaker grill for iSheep</text>
</g>
</svg>
