<?xml version="1.0" encoding="utf-8"?>
<!-- Generator: Adobe Illustrator 22.1.0, SVG Export Plug-In . SVG Version: 6.00 Build 0)  -->
<svg version="1.1" id="Layer_1" xmlns="http://www.w3.org/2000/svg" xmlns:xlink="http://www.w3.org/1999/xlink" x="0px" y="0px"
	 viewBox="0 0 907.2 345.6" style="enable-background:new 0 0 907.2 345.6;" xml:space="preserve">
<style type="text/css">
	.st0{fill:none;stroke:#000000;stroke-width:0.9;}
	.st1{fill:none;stroke:#FF0000;stroke-width:0.5;}
</style>
<g transform="translate(22.5, 22.5) ">
	<polygon class="st0" points="-4.5,-4.5 13.8,-4.5 13.8,4.5 31.5,4.5 31.5,-4.5 46.2,-4.5 46.2,4.5 60.3,4.5 60.3,-4.5 75,-4.5 
		75,4.5 89.1,4.5 89.1,-4.5 103.8,-4.5 103.8,4.5 117.9,4.5 117.9,-4.5 132.6,-4.5 132.6,4.5 146.7,4.5 146.7,-4.5 161.4,-4.5 
		161.4,4.5 175.5,4.5 175.5,-4.5 190.2,-4.5 190.2,4.5 204.3,4.5 204.3,-4.5 219,-4.5 219,4.5 233.1,4.5 233.1,-4.5 247.8,-4.5 
		247.8,4.5 261.9,4.5 261.9,-4.5 276.6,-4.5 276.6,4.5 294.3,4.5 294.3,-4.5 312.6,-4.5 312.6,10.2 303.6,10.2 303.6,24.3 
		312.6,24.3 312.6,39 303.6,39 303.6,53.1 312.6,53.1 312.6,67.8 294.3,67.8 294.3,58.8 276.6,58.8 276.6,67.8 261.9,67.8 
		261.9,58.8 247.8,58.8 247.8,67.8 233.1,67.8 233.1,58.8 219,58.8 219,67.8 204.3,67.8 204.3,58.8 190.2,58.8 190.2,67.8 
		175.5,67.8 175.5,58.8 161.4,58.8 161.4,67.8 146.7,67.8 146.7,58.8 132.6,58.8 132.6,67.8 117.9,67.8 117.9,58.8 103.8,58.8 
		103.8,67.8 89.1,67.8 89.1,58.8 75,58.8 75,67.8 60.3,67.8 60.3,58.8 46.2,58.8 46.2,67.8 31.5,67.8 31.5,58.8 13.8,58.8 
		13.8,67.8 -4.5,67.8 -4.5,53.1 4.5,53.1 4.5,39 -4.5,39 -4.5,24.3 4.5,24.3 4.5,10.2 -4.5,10.2 	"/>
</g>
<g transform="translate(418.86, 22.5) ">
	<polygon class="st0" points="-83.8,-4.5 -65.5,-4.5 -65.5,4.5 -47.8,4.5 -47.8,-4.5 -33.1,-4.5 -33.1,4.5 -19,4.5 -19,-4.5 
		-4.3,-4.5 -4.3,4.5 9.8,4.5 9.8,-4.5 24.5,-4.5 24.5,4.5 38.6,4.5 38.6,-4.5 53.3,-4.5 53.3,4.5 67.4,4.5 67.4,-4.5 82.1,-4.5 
		82.1,4.5 96.2,4.5 96.2,-4.5 110.9,-4.5 110.9,4.5 125,4.5 125,-4.5 139.7,-4.5 139.7,4.5 153.8,4.5 153.8,-4.5 168.5,-4.5 
		168.5,4.5 182.6,4.5 182.6,-4.5 197.3,-4.5 197.3,4.5 215,4.5 215,-4.5 233.3,-4.5 233.3,10.2 224.3,10.2 224.3,24.3 233.3,24.3 
		233.3,39 224.3,39 224.3,53.1 233.3,53.1 233.3,67.8 215,67.8 215,58.8 197.3,58.8 197.3,67.8 182.6,67.8 182.6,58.8 168.5,58.8 
		168.5,67.8 153.8,67.8 153.8,58.8 139.7,58.8 139.7,67.8 125,67.8 125,58.8 110.9,58.8 110.9,67.8 96.2,67.8 96.2,58.8 82.1,58.8 
		82.1,67.8 67.4,67.8 67.4,58.8 53.3,58.8 53.3,67.8 38.6,67.8 38.6,58.8 24.5,58.8 24.5,67.8 9.8,67.8 9.8,58.8 -4.3,58.8 
		-4.3,67.8 -19,67.8 -19,58.8 -33.1,58.8 -33.1,67.8 -47.8,67.8 -47.8,58.8 -65.5,58.8 -65.5,67.8 -83.8,67.8 -83.8,53.1 
		-74.8,53.1 -74.8,39 -83.8,39 -83.8,24.3 -74.8,24.3 -74.8,10.2 -83.8,10.2 	"/>
</g>
<g transform="translate(815.22, 22.5) ">
	<polygon class="st0" points="-154,-4.5 -143,-4.5 -143,4.5 -123.4,4.5 -123.4,-4.5 -108.8,-4.5 -108.8,4.5 -94.6,4.5 -94.6,-4.5 
		-80,-4.5 -80,4.5 -65.8,4.5 -65.8,-4.5 -51.2,-4.5 -51.2,4.5 -37,4.5 -37,-4.5 -22.4,-4.5 -22.4,4.5 -8.2,4.5 -8.2,-4.5 6.4,-4.5 
		6.4,4.5 20.6,4.5 20.6,-4.5 35.2,-4.5 35.2,4.5 54.8,4.5 54.8,-4.5 65.8,-4.5 65.8,9.9 74.8,9.9 74.8,24.6 65.8,24.6 65.8,38.7 
		74.8,38.7 74.8,53.4 65.8,53.4 65.8,67.8 54.8,67.8 54.8,58.8 35.2,58.8 35.2,67.8 20.6,67.8 20.6,58.8 6.4,58.8 6.4,67.8 
		-8.2,67.8 -8.2,58.8 -22.4,58.8 -22.4,67.8 -37,67.8 -37,58.8 -51.2,58.8 -51.2,67.8 -65.8,67.8 -65.8,58.8 -80,58.8 -80,67.8 
		-94.6,67.8 -94.6,58.8 -108.8,58.8 -108.8,67.8 -123.4,67.8 -123.4,58.8 -143,58.8 -143,67.8 -154,67.8 -154,53.4 -163,53.4 
		-163,38.7 -154,38.7 -154,24.6 -163,24.6 -163,9.9 -154,9.9 	"/>
</g>
<g transform="translate(815.22, 112.86) ">
	<polygon class="st0" points="-154,-22.6 -143,-22.6 -143,-13.6 -123.4,-13.6 -123.4,-22.6 -108.8,-22.6 -108.8,-13.6 -94.6,-13.6 
		-94.6,-22.6 -80,-22.6 -80,-13.6 -65.8,-13.6 -65.8,-22.6 -51.2,-22.6 -51.2,-13.6 -37,-13.6 -37,-22.6 -22.4,-22.6 -22.4,-13.6 
		-8.2,-13.6 -8.2,-22.6 6.4,-22.6 6.4,-13.6 20.6,-13.6 20.6,-22.6 35.2,-22.6 35.2,-13.6 54.8,-13.6 54.8,-22.6 65.8,-22.6 
		65.8,-8.2 74.8,-8.2 74.8,6.5 65.8,6.5 65.8,20.6 74.8,20.6 74.8,35.3 65.8,35.3 65.8,49.7 54.8,49.7 54.8,40.7 35.2,40.7 
		35.2,49.7 20.6,49.7 20.6,40.7 6.4,40.7 6.4,49.7 -8.2,49.7 -8.2,40.7 -22.4,40.7 -22.4,49.7 -37,49.7 -37,40.7 -51.2,40.7 
		-51.2,49.7 -65.8,49.7 -65.8,40.7 -80,40.7 -80,49.7 -94.6,49.7 -94.6,40.7 -108.8,40.7 -108.8,49.7 -123.4,49.7 -123.4,40.7 
		-143,40.7 -143,49.7 -154,49.7 -154,35.3 -163,35.3 -163,20.6 -154,20.6 -154,6.5 -163,6.5 -163,-8.2 -154,-8.2 	"/>
</g>
<g transform="translate(22.5, 112.86) ">
	<polygon class="st0" points="4.5,-13.6 13.5,-13.6 13.5,-22.6 31.8,-22.6 31.8,-13.6 45.9,-13.6 45.9,-22.6 60.6,-22.6 60.6,-13.6 
		74.7,-13.6 74.7,-22.6 89.4,-22.6 89.4,-13.6 103.5,-13.6 103.5,-22.6 118.2,-22.6 118.2,-13.6 132.3,-13.6 132.3,-22.6 147,-22.6 
		147,-13.6 161.1,-13.6 161.1,-22.6 175.8,-22.6 175.8,-13.6 189.9,-13.6 189.9,-22.6 204.6,-22.6 204.6,-13.6 218.7,-13.6 
		218.7,-22.6 233.4,-22.6 233.4,-13.6 247.5,-13.6 247.5,-22.6 262.2,-22.6 262.2,-13.6 276.3,-13.6 276.3,-22.6 294.6,-22.6 
		294.6,-13.6 303.6,-13.6 303.6,-2.8 312.6,-2.8 312.6,17.3 303.6,17.3 303.6,31.4 312.6,31.4 312.6,46.1 303.6,46.1 303.6,60.2 
		312.6,60.2 312.6,74.9 303.6,74.9 303.6,89 312.6,89 312.6,103.7 303.6,103.7 303.6,117.8 312.6,117.8 312.6,132.5 303.6,132.5 
		303.6,146.6 312.6,146.6 312.6,161.3 303.6,161.3 303.6,175.4 312.6,175.4 312.6,195.5 303.6,195.5 303.6,206.3 294.6,206.3 
		294.6,215.3 276.3,215.3 276.3,206.3 262.2,206.3 262.2,215.3 247.5,215.3 247.5,206.3 233.4,206.3 233.4,215.3 218.7,215.3 
		218.7,206.3 204.6,206.3 204.6,215.3 189.9,215.3 189.9,206.3 175.8,206.3 175.8,215.3 161.1,215.3 161.1,206.3 147,206.3 
		147,215.3 132.3,215.3 132.3,206.3 118.2,206.3 118.2,215.3 103.5,215.3 103.5,206.3 89.4,206.3 89.4,215.3 74.7,215.3 74.7,206.3 
		60.6,206.3 60.6,215.3 45.9,215.3 45.9,206.3 31.8,206.3 31.8,215.3 13.5,215.3 13.5,206.3 4.5,206.3 4.5,195.5 -4.5,195.5 
		-4.5,175.4 4.5,175.4 4.5,161.3 -4.5,161.3 -4.5,146.6 4.5,146.6 4.5,132.5 -4.5,132.5 -4.5,117.8 4.5,117.8 4.5,103.7 -4.5,103.7 
		-4.5,89 4.5,89 4.5,74.9 -4.5,74.9 -4.5,60.2 4.5,60.2 4.5,46.1 -4.5,46.1 -4.5,31.4 4.5,31.4 4.5,17.3 -4.5,17.3 -4.5,-2.8 
		4.5,-2.8 	"/>
</g>
<g transform="translate(418.86, 112.86) ">
	<polygon class="st0" points="-74.8,-13.6 -65.8,-13.6 -65.8,-22.6 -47.5,-22.6 -47.5,-13.6 -33.4,-13.6 -33.4,-22.6 -18.7,-22.6 
		-18.7,-13.6 -4.6,-13.6 -4.6,-22.6 10.1,-22.6 10.1,-13.6 24.2,-13.6 24.2,-22.6 38.9,-22.6 38.9,-13.6 53,-13.6 53,-22.6 
		67.7,-22.6 67.7,-13.6 81.8,-13.6 81.8,-22.6 96.5,-22.6 96.5,-13.6 110.6,-13.6 110.6,-22.6 125.3,-22.6 125.3,-13.6 139.4,-13.6 
		139.4,-22.6 154.1,-22.6 154.1,-13.6 168.2,-13.6 168.2,-22.6 182.9,-22.6 182.9,-13.6 197,-13.6 197,-22.6 215.3,-22.6 
		215.3,-13.6 224.3,-13.6 224.3,-2.8 233.3,-2.8 233.3,17.3 224.3,17.3 224.3,31.4 233.3,31.4 233.3,46.1 224.3,46.1 224.3,60.2 
		233.3,60.2 233.3,74.9 224.3,74.9 224.3,89 233.3,89 233.3,103.7 224.3,103.7 224.3,117.8 233.3,117.8 233.3,132.5 224.3,132.5 
		224.3,146.6 233.3,146.6 233.3,161.3 224.3,161.3 224.3,175.4 233.3,175.4 233.3,195.5 224.3,195.5 224.3,206.3 215.3,206.3 
		215.3,215.3 197,215.3 197,206.3 182.9,206.3 182.9,215.3 168.2,215.3 168.2,206.3 154.1,206.3 154.1,215.3 139.4,215.3 
		139.4,206.3 125.3,206.3 125.3,215.3 110.6,215.3 110.6,206.3 96.5,206.3 96.5,215.3 81.8,215.3 81.8,206.3 67.7,206.3 67.7,215.3 
		53,215.3 53,206.3 38.9,206.3 38.9,215.3 24.2,215.3 24.2,206.3 10.1,206.3 10.1,215.3 -4.6,215.3 -4.6,206.3 -18.7,206.3 
		-18.7,215.3 -33.4,215.3 -33.4,206.3 -47.5,206.3 -47.5,215.3 -65.8,215.3 -65.8,206.3 -74.8,206.3 -74.8,195.5 -83.8,195.5 
		-83.8,175.4 -74.8,175.4 -74.8,161.3 -83.8,161.3 -83.8,146.6 -74.8,146.6 -74.8,132.5 -83.8,132.5 -83.8,117.8 -74.8,117.8 
		-74.8,103.7 -83.8,103.7 -83.8,89 -74.8,89 -74.8,74.9 -83.8,74.9 -83.8,60.2 -74.8,60.2 -74.8,46.1 -83.8,46.1 -83.8,31.4 
		-74.8,31.4 -74.8,17.3 -83.8,17.3 -83.8,-2.8 -74.8,-2.8 	"/>
</g>
<g>
	<polygon class="st1" points="62.5,127.1 62.2,127.1 62,127.1 61.7,127 61.4,126.9 61.2,126.8 60.9,126.7 60.7,126.6 60.5,126.5 
		60.2,126.3 60,126.2 59.8,126 59.6,125.8 59.5,125.6 59.3,125.4 59.1,125.1 59,124.9 58.9,124.7 58.8,124.4 58.7,124.2 58.6,123.9 
		58.5,123.6 58.5,123.4 58.5,123.1 58.5,122.8 58.5,122.6 58.5,122.3 58.5,122 58.6,121.8 58.7,121.5 58.8,121.2 58.9,121 59,120.8 
		59.1,120.5 59.3,120.3 59.5,120.1 59.6,119.9 59.8,119.7 60,119.5 60.2,119.3 60.5,119.2 60.7,119 60.9,118.9 61.2,118.8 
		61.4,118.7 61.7,118.6 62,118.6 62.2,118.5 62.5,118.5 62.8,118.5 63.1,118.5 63.3,118.5 63.6,118.6 63.9,118.6 64.1,118.7 
		64.4,118.8 64.6,118.9 64.9,119 65.1,119.2 65.3,119.3 65.5,119.5 65.7,119.7 65.9,119.9 66.1,120.1 66.3,120.3 66.4,120.5 
		66.6,120.8 66.7,121 66.8,121.2 66.9,121.5 67,121.8 67,122 67.1,122.3 67.1,122.6 67.1,122.8 67.1,123.1 67.1,123.4 67,123.6 
		67,123.9 66.9,124.2 66.8,124.4 66.7,124.7 66.6,124.9 66.4,125.1 66.3,125.4 66.1,125.6 65.9,125.8 65.7,126 65.5,126.2 
		65.3,126.3 65.1,126.5 64.9,126.6 64.6,126.7 64.4,126.8 64.1,126.9 63.9,127 63.6,127.1 63.3,127.1 63.1,127.1 62.8,127.2 	"/>
	<polygon class="st1" points="290,127.1 289.8,127.1 289.5,127.1 289.2,127 289,126.9 288.7,126.8 288.5,126.7 288.2,126.6 
		288,126.5 287.8,126.3 287.5,126.2 287.3,126 287.2,125.8 287,125.6 286.8,125.4 286.7,125.1 286.5,124.9 286.4,124.7 286.3,124.4 
		286.2,124.2 286.1,123.9 286.1,123.6 286,123.4 286,123.1 286,122.8 286,122.6 286,122.3 286.1,122 286.1,121.8 286.2,121.5 
		286.3,121.2 286.4,121 286.5,120.8 286.7,120.5 286.8,120.3 287,120.1 287.2,119.9 287.3,119.7 287.5,119.5 287.8,119.3 288,119.2 
		288.2,119 288.5,118.9 288.7,118.8 289,118.7 289.2,118.6 289.5,118.6 289.8,118.5 290,118.5 290.3,118.5 290.6,118.5 290.8,118.5 
		291.1,118.6 291.4,118.6 291.6,118.7 291.9,118.8 292.1,118.9 292.4,119 292.6,119.2 292.8,119.3 293.1,119.5 293.3,119.7 
		293.5,119.9 293.6,120.1 293.8,120.3 294,120.5 294.1,120.8 294.2,121 294.3,121.2 294.4,121.5 294.5,121.8 294.5,122 294.6,122.3 
		294.6,122.6 294.6,122.8 294.6,123.1 294.6,123.4 294.5,123.6 294.5,123.9 294.4,124.2 294.3,124.4 294.2,124.7 294.1,124.9 
		294,125.1 293.8,125.4 293.6,125.6 293.5,125.8 293.3,126 293.1,126.2 292.8,126.3 292.6,126.5 292.4,126.6 292.1,126.7 
		291.9,126.8 291.6,126.9 291.4,127 291.1,127.1 290.8,127.1 290.6,127.1 290.3,127.2 	"/>
	<rect x="55.6" y="130" class="st1" width="241.9" height="158.4"/>
	<polygon class="st1" points="62.5,299.9 62.2,299.9 62,299.9 61.7,299.8 61.4,299.7 61.2,299.6 60.9,299.5 60.7,299.4 60.5,299.3 
		60.2,299.1 60,299 59.8,298.8 59.6,298.6 59.5,298.4 59.3,298.2 59.1,297.9 59,297.7 58.9,297.5 58.8,297.2 58.7,297 58.6,296.7 
		58.5,296.4 58.5,296.2 58.5,295.9 58.5,295.6 58.5,295.4 58.5,295.1 58.5,294.8 58.6,294.6 58.7,294.3 58.8,294 58.9,293.8 
		59,293.6 59.1,293.3 59.3,293.1 59.5,292.9 59.6,292.7 59.8,292.5 60,292.3 60.2,292.1 60.5,292 60.7,291.8 60.9,291.7 61.2,291.6 
		61.4,291.5 61.7,291.4 62,291.4 62.2,291.3 62.5,291.3 62.8,291.3 63.1,291.3 63.3,291.3 63.6,291.4 63.9,291.4 64.1,291.5 
		64.4,291.6 64.6,291.7 64.9,291.8 65.1,292 65.3,292.1 65.5,292.3 65.7,292.5 65.9,292.7 66.1,292.9 66.3,293.1 66.4,293.3 
		66.6,293.6 66.7,293.8 66.8,294 66.9,294.3 67,294.6 67,294.8 67.1,295.1 67.1,295.4 67.1,295.6 67.1,295.9 67.1,296.2 67,296.4 
		67,296.7 66.9,297 66.8,297.2 66.7,297.5 66.6,297.7 66.4,297.9 66.3,298.2 66.1,298.4 65.9,298.6 65.7,298.8 65.5,299 65.3,299.1 
		65.1,299.3 64.9,299.4 64.6,299.5 64.4,299.6 64.1,299.7 63.9,299.8 63.6,299.9 63.3,299.9 63.1,299.9 62.8,300 	"/>
	<polygon class="st1" points="290,299.9 289.8,299.9 289.5,299.9 289.2,299.8 289,299.7 288.7,299.6 288.5,299.5 288.2,299.4 
		288,299.3 287.8,299.1 287.5,299 287.3,298.8 287.2,298.6 287,298.4 286.8,298.2 286.7,297.9 286.5,297.7 286.4,297.5 286.3,297.2 
		286.2,297 286.1,296.7 286.1,296.4 286,296.2 286,295.9 286,295.6 286,295.4 286,295.1 286.1,294.8 286.1,294.6 286.2,294.3 
		286.3,294 286.4,293.8 286.5,293.6 286.7,293.3 286.8,293.1 287,292.9 287.2,292.7 287.3,292.5 287.5,292.3 287.8,292.1 288,292 
		288.2,291.8 288.5,291.7 288.7,291.6 289,291.5 289.2,291.4 289.5,291.4 289.8,291.3 290,291.3 290.3,291.3 290.6,291.3 
		290.8,291.3 291.1,291.4 291.4,291.4 291.6,291.5 291.9,291.6 292.1,291.7 292.4,291.8 292.6,292 292.8,292.1 293.1,292.3 
		293.3,292.5 293.5,292.7 293.6,292.9 293.8,293.1 294,293.3 294.1,293.6 294.2,293.8 294.3,294 294.4,294.3 294.5,294.6 
		294.5,294.8 294.6,295.1 294.6,295.4 294.6,295.6 294.6,295.9 294.6,296.2 294.5,296.4 294.5,296.7 294.4,297 294.3,297.2 
		294.2,297.5 294.1,297.7 294,297.9 293.8,298.2 293.6,298.4 293.5,298.6 293.3,298.8 293.1,299 292.8,299.1 292.6,299.3 
		292.4,299.4 292.1,299.5 291.9,299.6 291.6,299.7 291.4,299.8 291.1,299.9 290.8,299.9 290.6,299.9 290.3,300 	"/>
</g>
<g>
	<path d="M441.7,190.4c0.5-0.1,1.2-0.2,1.9-0.2c1,0,1.7,0.2,2.2,0.6c0.4,0.3,0.7,0.8,0.7,1.4c0,0.8-0.5,1.5-1.4,1.8v0
		c0.8,0.2,1.7,0.8,1.7,2c0,0.7-0.3,1.2-0.7,1.6c-0.6,0.5-1.5,0.8-2.8,0.8c-0.7,0-1.3,0-1.6-0.1V190.4z M442.8,193.7h0.9
		c1.1,0,1.8-0.6,1.8-1.4c0-0.9-0.7-1.3-1.8-1.3c-0.5,0-0.8,0-0.9,0.1V193.7z M442.8,197.6c0.2,0,0.5,0,0.9,0c1.1,0,2.1-0.4,2.1-1.6
		c0-1.1-0.9-1.6-2.1-1.6h-0.9V197.6z"/>
	<path d="M449.4,190.9c0,0.4-0.3,0.6-0.7,0.6c-0.4,0-0.6-0.3-0.6-0.6c0-0.4,0.3-0.7,0.7-0.7C449.1,190.3,449.4,190.5,449.4,190.9z
		 M448.2,198.4v-5.8h1.1v5.8H448.2z"/>
	<path d="M451,189.8h1.1v8.5H451V189.8z"/>
	<path d="M453.8,189.8h1.1v8.5h-1.1V189.8z"/>
	<path d="M459.2,190.4c0.5-0.1,1.2-0.2,2-0.2c1,0,1.8,0.2,2.3,0.7c0.4,0.4,0.7,1,0.7,1.7c0,0.7-0.2,1.3-0.6,1.7
		c-0.6,0.6-1.5,0.9-2.5,0.9c-0.3,0-0.6,0-0.8-0.1v3.2h-1V190.4z M460.3,194.3c0.2,0.1,0.5,0.1,0.9,0.1c1.3,0,2-0.6,2-1.7
		c0-1.1-0.8-1.6-1.9-1.6c-0.5,0-0.8,0-1,0.1V194.3z"/>
	<path d="M470.3,196.8c0,0.6,0,1.1,0,1.6h-0.9l-0.1-0.9h0c-0.3,0.5-0.9,1.1-1.9,1.1c-0.9,0-2-0.5-2-2.5v-3.4h1.1v3.2
		c0,1.1,0.3,1.8,1.3,1.8c0.7,0,1.2-0.5,1.4-1c0.1-0.2,0.1-0.3,0.1-0.5v-3.6h1.1V196.8z"/>
	<path d="M477,192.5c0,0.4,0,0.9,0,1.6v3.4c0,1.3-0.3,2.1-0.8,2.7c-0.6,0.5-1.4,0.7-2.1,0.7c-0.7,0-1.5-0.2-1.9-0.5l0.3-0.8
		c0.4,0.2,1,0.5,1.7,0.5c1.1,0,1.9-0.6,1.9-2v-0.6h0c-0.3,0.5-0.9,1-1.8,1c-1.4,0-2.5-1.2-2.5-2.8c0-2,1.3-3.1,2.6-3.1
		c1,0,1.6,0.5,1.8,1h0l0-0.9H477z M475.9,194.8c0-0.2,0-0.3-0.1-0.5c-0.2-0.6-0.7-1.1-1.5-1.1c-1,0-1.7,0.9-1.7,2.2
		c0,1.1,0.6,2.1,1.7,2.1c0.6,0,1.2-0.4,1.5-1.1c0.1-0.2,0.1-0.4,0.1-0.6V194.8z"/>
	<path d="M478.7,189.8h1.1v3.6h0c0.2-0.3,0.4-0.6,0.8-0.7c0.3-0.2,0.7-0.3,1.1-0.3c0.8,0,2,0.5,2,2.5v3.5h-1.1V195
		c0-0.9-0.3-1.7-1.3-1.7c-0.7,0-1.2,0.5-1.4,1.1c-0.1,0.1-0.1,0.3-0.1,0.5v3.5h-1.1V189.8z"/>
	<path d="M441.3,212.8v-0.6l0.8-0.8c2-1.9,2.9-2.9,2.9-4.1c0-0.8-0.4-1.5-1.5-1.5c-0.7,0-1.3,0.4-1.7,0.7l-0.3-0.7
		c0.5-0.5,1.3-0.8,2.2-0.8c1.7,0,2.4,1.2,2.4,2.3c0,1.4-1,2.6-2.7,4.2l-0.6,0.6v0h3.5v0.9H441.3z"/>
	<path d="M450.8,212.8v-2.1h-3.6v-0.7l3.5-5h1.1v4.8h1.1v0.8h-1.1v2.1H450.8z M450.8,209.8v-2.6c0-0.4,0-0.8,0-1.2h0
		c-0.2,0.5-0.4,0.8-0.6,1.2l-1.9,2.7v0H450.8z"/>
	<path d="M458.8,208.8c0,2.7-1,4.1-2.7,4.1c-1.5,0-2.6-1.4-2.6-4c0-2.6,1.1-4.1,2.7-4.1C457.9,204.8,458.8,206.3,458.8,208.8z
		 M454.6,208.9c0,2,0.6,3.2,1.6,3.2c1.1,0,1.6-1.3,1.6-3.2c0-1.9-0.5-3.2-1.6-3.2C455.3,205.6,454.6,206.8,454.6,208.9z"/>
	<path d="M462.6,209.1v0.8h-3v-0.8H462.6z"/>
	<path d="M468.6,205v0.7l-3.4,7.1h-1.1l3.4-6.9v0h-3.8V205H468.6z"/>
	<path d="M469.9,211.5c0.3,0.2,1,0.5,1.7,0.5c1.4,0,1.8-0.9,1.8-1.5c0-1.1-1-1.6-2-1.6h-0.6v-0.8h0.6c0.8,0,1.7-0.4,1.7-1.3
		c0-0.6-0.4-1.2-1.4-1.2c-0.6,0-1.2,0.3-1.6,0.5l-0.3-0.8c0.4-0.3,1.2-0.6,2-0.6c1.5,0,2.2,0.9,2.2,1.9c0,0.8-0.5,1.5-1.4,1.8v0
		c1,0.2,1.7,0.9,1.7,2c0,1.2-1,2.3-2.8,2.3c-0.9,0-1.6-0.3-2-0.5L469.9,211.5z"/>
	<path d="M478.1,205.9L478.1,205.9l-1.4,0.7l-0.2-0.8l1.7-0.9h0.9v7.8h-1V205.9z"/>
	<path d="M484.8,209.1v0.8h-3v-0.8H484.8z"/>
	<path d="M485.7,212.8v-0.6l0.8-0.8c2-1.9,2.9-2.9,2.9-4.1c0-0.8-0.4-1.5-1.5-1.5c-0.7,0-1.3,0.4-1.7,0.7l-0.3-0.7
		c0.5-0.5,1.3-0.8,2.2-0.8c1.7,0,2.4,1.2,2.4,2.3c0,1.4-1,2.6-2.7,4.2l-0.6,0.6v0h3.5v0.9H485.7z"/>
	<path d="M496.5,205.8h-3l-0.3,2c0.2,0,0.3,0,0.6,0c0.6,0,1.2,0.1,1.7,0.4c0.6,0.3,1.1,1,1.1,2c0,1.5-1.2,2.7-2.9,2.7
		c-0.9,0-1.6-0.2-1.9-0.5l0.3-0.8c0.3,0.2,1,0.4,1.7,0.4c1,0,1.8-0.6,1.8-1.7c0-1-0.7-1.7-2.2-1.7c-0.4,0-0.8,0-1.1,0.1l0.5-3.7h3.7
		V205.8z"/>
	<path d="M497.9,210.8c0-1,0.6-1.7,1.5-2.1l0,0c-0.9-0.4-1.2-1.1-1.2-1.8c0-1.2,1-2.1,2.4-2.1c1.5,0,2.3,0.9,2.3,1.9
		c0,0.7-0.3,1.4-1.3,1.8v0c1,0.4,1.6,1.1,1.6,2c0,1.4-1.2,2.3-2.7,2.3C498.8,212.9,497.9,211.9,497.9,210.8z M502.1,210.7
		c0-0.9-0.7-1.4-1.7-1.7c-0.9,0.3-1.4,0.9-1.4,1.6c0,0.8,0.6,1.5,1.6,1.5C501.5,212.1,502.1,211.5,502.1,210.7z M499.2,206.8
		c0,0.8,0.6,1.2,1.5,1.4c0.7-0.2,1.2-0.7,1.2-1.4c0-0.6-0.4-1.3-1.3-1.3C499.6,205.6,499.2,206.2,499.2,206.8z"/>
	<path d="M509.3,208.8c0,2.7-1,4.1-2.7,4.1c-1.5,0-2.6-1.4-2.6-4c0-2.6,1.1-4.1,2.7-4.1C508.4,204.8,509.3,206.3,509.3,208.8z
		 M505.1,208.9c0,2,0.6,3.2,1.6,3.2c1.1,0,1.6-1.3,1.6-3.2c0-1.9-0.5-3.2-1.6-3.2C505.7,205.6,505.1,206.8,505.1,208.9z"/>
	<path d="M441.6,227.2c0-0.4,0-1,0-1.5v-7h1v3.6h0c0.4-0.6,1-1.1,2-1.1c1.4,0,2.5,1.2,2.4,3c0,2.1-1.3,3.1-2.6,3.1
		c-0.8,0-1.5-0.3-1.9-1.1h0l0,1H441.6z M442.7,224.8c0,0.1,0,0.3,0,0.4c0.2,0.7,0.8,1.2,1.6,1.2c1.1,0,1.8-0.9,1.8-2.2
		c0-1.2-0.6-2.2-1.7-2.2c-0.7,0-1.4,0.5-1.6,1.3c0,0.1-0.1,0.3-0.1,0.4V224.8z"/>
	<path d="M449.7,219.7c0,0.4-0.3,0.6-0.7,0.6c-0.4,0-0.6-0.3-0.6-0.6c0-0.4,0.3-0.7,0.7-0.7C449.4,219.1,449.7,219.3,449.7,219.7z
		 M448.5,227.2v-5.8h1.1v5.8H448.5z"/>
	<path d="M451.3,218.6h1.1v8.5h-1.1V218.6z"/>
	<path d="M454.2,218.6h1.1v8.5h-1.1V218.6z"/>
	<path d="M456.6,226.5c0-0.4,0.3-0.8,0.7-0.8c0.4,0,0.7,0.3,0.7,0.8c0,0.4-0.3,0.8-0.7,0.8C456.9,227.3,456.6,227,456.6,226.5z"/>
	<path d="M459.3,223.2c0-0.7,0-1.3,0-1.9h0.9l0,1h0c0.4-0.7,1.1-1.1,2.1-1.1c1.4,0,2.5,1.2,2.5,3c0,2.1-1.3,3.1-2.6,3.1
		c-0.8,0-1.4-0.3-1.8-0.9h0v3.2h-1V223.2z M460.4,224.8c0,0.2,0,0.3,0,0.4c0.2,0.7,0.8,1.2,1.6,1.2c1.1,0,1.8-0.9,1.8-2.2
		c0-1.2-0.6-2.2-1.7-2.2c-0.7,0-1.4,0.5-1.6,1.3c0,0.1-0.1,0.3-0.1,0.4V224.8z"/>
	<path d="M471,225.6c0,0.6,0,1.1,0,1.6h-0.9l-0.1-0.9h0c-0.3,0.5-0.9,1.1-1.9,1.1c-0.9,0-2-0.5-2-2.5v-3.4h1.1v3.2
		c0,1.1,0.3,1.8,1.3,1.8c0.7,0,1.2-0.5,1.4-1c0.1-0.2,0.1-0.3,0.1-0.5v-3.6h1.1V225.6z"/>
	<path d="M477.8,221.3c0,0.4,0,0.9,0,1.6v3.4c0,1.3-0.3,2.1-0.8,2.7c-0.6,0.5-1.4,0.7-2.1,0.7c-0.7,0-1.5-0.2-1.9-0.5l0.3-0.8
		c0.4,0.2,1,0.5,1.7,0.5c1.1,0,1.9-0.6,1.9-2v-0.6h0c-0.3,0.5-0.9,1-1.8,1c-1.4,0-2.5-1.2-2.5-2.8c0-2,1.3-3.1,2.6-3.1
		c1,0,1.6,0.5,1.8,1h0l0-0.9H477.8z M476.7,223.6c0-0.2,0-0.3-0.1-0.5c-0.2-0.6-0.7-1.1-1.5-1.1c-1,0-1.7,0.9-1.7,2.2
		c0,1.1,0.6,2.1,1.7,2.1c0.6,0,1.2-0.4,1.5-1.1c0.1-0.2,0.1-0.4,0.1-0.6V223.6z"/>
	<path d="M479.5,218.6h1.1v3.6h0c0.2-0.3,0.4-0.6,0.8-0.7c0.3-0.2,0.7-0.3,1.1-0.3c0.8,0,2,0.5,2,2.5v3.5h-1.1v-3.3
		c0-0.9-0.3-1.7-1.3-1.7c-0.7,0-1.2,0.5-1.4,1.1c-0.1,0.1-0.1,0.3-0.1,0.5v3.5h-1.1V218.6z"/>
	<path d="M491.6,227.9c-0.7,0.3-1.3,0.5-2.1,0.5c-2,0-3.6-1.4-3.6-3.7c0-2.5,1.7-4.6,4.4-4.6c2.1,0,3.5,1.5,3.5,3.5
		c0,1.8-1,2.9-2.1,2.9c-0.5,0-0.9-0.3-0.9-1.1h0c-0.4,0.7-1,1.1-1.7,1.1c-0.7,0-1.3-0.6-1.3-1.5c0-1.5,1.2-2.8,2.8-2.8
		c0.5,0,1,0.1,1.3,0.3l-0.4,2.2c-0.2,0.9,0,1.3,0.4,1.3c0.6,0,1.3-0.8,1.3-2.2c0-1.7-1-3-2.9-3c-2,0-3.6,1.5-3.6,4
		c0,2,1.3,3.2,3.1,3.2c0.7,0,1.3-0.1,1.8-0.4L491.6,227.9z M490.9,222.7c-0.1,0-0.3-0.1-0.6-0.1c-1.1,0-1.9,1-1.9,2.2
		c0,0.5,0.3,0.9,0.8,0.9c0.7,0,1.3-0.9,1.5-1.6L490.9,222.7z"/>
	<path d="M500,221.3c0,0.4,0,0.9,0,1.6v3.4c0,1.3-0.3,2.1-0.8,2.7c-0.6,0.5-1.4,0.7-2.1,0.7c-0.7,0-1.5-0.2-1.9-0.5l0.3-0.8
		c0.4,0.2,1,0.5,1.7,0.5c1.1,0,1.9-0.6,1.9-2v-0.6h0c-0.3,0.5-0.9,1-1.8,1c-1.4,0-2.5-1.2-2.5-2.8c0-2,1.3-3.1,2.6-3.1
		c1,0,1.6,0.5,1.8,1h0l0-0.9H500z M498.9,223.6c0-0.2,0-0.3-0.1-0.5c-0.2-0.6-0.7-1.1-1.5-1.1c-1,0-1.7,0.9-1.7,2.2
		c0,1.1,0.6,2.1,1.7,2.1c0.6,0,1.2-0.4,1.5-1.1c0.1-0.2,0.1-0.4,0.1-0.6V223.6z"/>
	<path d="M501.6,222.9c0-0.6,0-1.1,0-1.6h0.9l0,0.9h0c0.3-0.6,0.9-1.1,1.8-1.1c0.8,0,1.4,0.5,1.6,1.2h0c0.2-0.3,0.4-0.6,0.6-0.8
		c0.3-0.3,0.7-0.4,1.3-0.4c0.8,0,1.9,0.5,1.9,2.5v3.4h-1v-3.3c0-1.1-0.4-1.8-1.3-1.8c-0.6,0-1.1,0.4-1.2,1c0,0.1-0.1,0.3-0.1,0.5
		v3.6h-1v-3.5c0-0.9-0.4-1.6-1.2-1.6c-0.7,0-1.1,0.5-1.3,1.1c-0.1,0.2-0.1,0.3-0.1,0.5v3.5h-1V222.9z"/>
	<path d="M514.9,227.2l-0.1-0.7h0c-0.3,0.5-0.9,0.9-1.8,0.9c-1.2,0-1.8-0.8-1.8-1.7c0-1.4,1.2-2.2,3.5-2.2v-0.1
		c0-0.5-0.1-1.3-1.3-1.3c-0.5,0-1.1,0.2-1.5,0.4l-0.2-0.7c0.5-0.3,1.2-0.5,1.9-0.5c1.8,0,2.2,1.2,2.2,2.4v2.2c0,0.5,0,1,0.1,1.4
		H514.9z M514.7,224.2c-1.2,0-2.5,0.2-2.5,1.3c0,0.7,0.5,1,1,1c0.8,0,1.2-0.5,1.4-1c0-0.1,0.1-0.2,0.1-0.3V224.2z"/>
	<path d="M518.6,219.7c0,0.4-0.3,0.6-0.7,0.6c-0.4,0-0.6-0.3-0.6-0.6c0-0.4,0.3-0.7,0.7-0.7C518.4,219.1,518.6,219.3,518.6,219.7z
		 M517.4,227.2v-5.8h1.1v5.8H517.4z"/>
	<path d="M520.2,218.6h1.1v8.5h-1.1V218.6z"/>
	<path d="M522.7,226.5c0-0.4,0.3-0.8,0.7-0.8c0.4,0,0.7,0.3,0.7,0.8c0,0.4-0.3,0.8-0.7,0.8C523,227.3,522.7,227,522.7,226.5z"/>
	<path d="M529.6,226.9c-0.3,0.1-0.9,0.3-1.7,0.3c-1.8,0-2.9-1.2-2.9-3c0-1.8,1.2-3.1,3.1-3.1c0.6,0,1.2,0.2,1.5,0.3l-0.2,0.8
		c-0.3-0.1-0.6-0.3-1.2-0.3c-1.3,0-2.1,1-2.1,2.2c0,1.3,0.9,2.2,2,2.2c0.6,0,1-0.2,1.3-0.3L529.6,226.9z"/>
	<path d="M536,224.2c0,2.1-1.5,3.1-2.9,3.1c-1.6,0-2.8-1.2-2.8-3c0-1.9,1.3-3.1,2.9-3.1C534.9,221.2,536,222.4,536,224.2z
		 M531.4,224.3c0,1.3,0.7,2.2,1.8,2.2c1,0,1.8-0.9,1.8-2.3c0-1-0.5-2.2-1.7-2.2C531.9,222,531.4,223.2,531.4,224.3z"/>
	<path d="M537.3,222.9c0-0.6,0-1.1,0-1.6h0.9l0,0.9h0c0.3-0.6,0.9-1.1,1.8-1.1c0.8,0,1.4,0.5,1.6,1.2h0c0.2-0.3,0.4-0.6,0.6-0.8
		c0.3-0.3,0.7-0.4,1.3-0.4c0.8,0,1.9,0.5,1.9,2.5v3.4h-1v-3.3c0-1.1-0.4-1.8-1.3-1.8c-0.6,0-1.1,0.4-1.2,1c0,0.1-0.1,0.3-0.1,0.5
		v3.6h-1v-3.5c0-0.9-0.4-1.6-1.2-1.6c-0.7,0-1.1,0.5-1.3,1.1c-0.1,0.2-0.1,0.3-0.1,0.5v3.5h-1V222.9z"/>
</g>
</svg>
